<svg width="28" height="27" viewBox="0 0 28 27" fill="none" xmlns="http://www.w3.org/2000/svg">
<path d="M14.1661 4.21875C11.8361 4.21875 9.94733 6.10755 9.94733 8.4375C9.94733 10.7675 11.8361 12.6562 14.1661 12.6562C16.4961 12.6562 18.3848 10.7675 18.3848 8.4375C18.3848 6.10755 16.4961 4.21875 14.1661 4.21875Z" fill="#109DD4"/>
<path d="M9.66608 14.9062C7.33612 14.9062 5.44733 16.795 5.44733 19.125V20.4618C5.44733 21.3092 6.06144 22.0317 6.89776 22.1682C11.7114 22.9542 16.6207 22.9542 21.4344 22.1682C22.2707 22.0317 22.8848 21.3092 22.8848 20.4618V19.125C22.8848 16.795 20.9961 14.9062 18.6661 14.9062H18.2826C18.075 14.9062 17.8688 14.9391 17.6715 15.0035L16.6978 15.3215C15.0527 15.8586 13.2795 15.8586 11.6344 15.3215L10.6607 15.0035C10.4634 14.9391 10.2571 14.9062 10.0496 14.9062H9.66608Z" fill="#109DD4"/>
</svg>
