<svg width="29" height="28" viewBox="0 0 29 28" fill="none" xmlns="http://www.w3.org/2000/svg">
<path fill-rule="evenodd" clip-rule="evenodd" d="M9.24335 8.6872C9.24335 5.96845 11.4473 3.76447 14.1661 3.76447C16.8848 3.76447 19.0888 5.96845 19.0888 8.6872C19.0888 11.406 16.8848 13.6099 14.1661 13.6099C11.4473 13.6099 9.24335 11.406 9.24335 8.6872ZM14.1661 5.5019C12.4069 5.5019 10.9808 6.92801 10.9808 8.6872C10.9808 10.4464 12.4069 11.8725 14.1661 11.8725C15.9253 11.8725 17.3514 10.4464 17.3514 8.6872C17.3514 6.92801 15.9253 5.5019 14.1661 5.5019Z" fill="#ACB5BD"/>
<path fill-rule="evenodd" clip-rule="evenodd" d="M9.53292 17.0848C8.09358 17.0848 6.92677 18.2517 6.92677 19.6909V21.0673C6.92677 21.0883 6.94195 21.1061 6.96264 21.1095C11.7334 21.8885 16.5988 21.8885 21.3695 21.1095C21.3902 21.1061 21.4054 21.0883 21.4054 21.0673V19.6909C21.4054 18.2517 20.2385 17.0848 18.7993 17.0848H18.4044C18.3739 17.0848 18.3436 17.0897 18.3145 17.099L17.312 17.4265C15.2679 18.0939 13.0643 18.0939 11.0201 17.4265L10.0176 17.099C9.98862 17.0897 9.95827 17.0848 9.92775 17.0848H9.53292ZM5.18933 19.6909C5.18933 17.292 7.13402 15.3474 9.53292 15.3474H9.92775C10.1414 15.3474 10.3538 15.3812 10.5569 15.4474L11.5595 15.7749C13.2532 16.3278 15.0789 16.3278 16.7727 15.7749L17.7752 15.4474C17.9784 15.3812 18.1907 15.3474 18.4044 15.3474H18.7993C21.1982 15.3474 23.1428 17.292 23.1428 19.6909V21.0673C23.1428 21.9398 22.5105 22.6836 21.6495 22.8242C16.6934 23.6334 11.6388 23.6334 6.68268 22.8242C5.82162 22.6836 5.18933 21.9398 5.18933 21.0673V19.6909Z" fill="#ACB5BD"/>
</svg>
