<svg width="28" height="27" viewBox="0 0 28 27" fill="none" xmlns="http://www.w3.org/2000/svg">
<path fill-rule="evenodd" clip-rule="evenodd" d="M15.9186 6.22601C14.9393 5.28623 13.3929 5.28623 12.4136 6.22601L7.20879 11.2203C7.08127 11.3426 6.99549 11.502 6.96361 11.6758C6.34021 15.0754 6.2942 18.5557 6.82749 21.9707L6.95408 22.7812H10.3026V15.7935C10.3026 15.3274 10.6804 14.9498 11.1463 14.9498H17.1858C17.6518 14.9498 18.0296 15.3274 18.0296 15.7935V22.7812H21.3781L21.5047 21.9707C22.0379 18.5557 21.9919 15.0754 21.3686 11.6758C21.3367 11.502 21.2509 11.3426 21.1234 11.2203L15.9186 6.22601ZM11.2452 5.0084C12.8775 3.44211 15.4547 3.44211 17.087 5.0084L22.2917 10.0027C22.6749 10.3703 22.9326 10.8492 23.0284 11.3715C23.6859 14.9576 23.7345 18.6289 23.1719 22.231L22.9686 23.5332C22.8845 24.0717 22.4207 24.4688 21.8756 24.4688H17.1858C16.7198 24.4688 16.3421 24.091 16.3421 23.625V16.6373H11.9901V23.625C11.9901 24.091 11.6123 24.4688 11.1463 24.4688H6.45652C5.91148 24.4688 5.44766 24.0717 5.36356 23.5332L5.16021 22.231C4.59765 18.6289 4.6462 14.9576 5.30379 11.3715C5.39956 10.8492 5.65728 10.3703 6.04042 10.0027L11.2452 5.0084Z" fill="#ACB5BD"/>
</svg>
