<svg width="28" height="27" viewBox="0 0 28 27" fill="none" xmlns="http://www.w3.org/2000/svg">
<path d="M16.1866 4.65308C15.0814 3.51164 13.2507 3.51164 12.1455 4.65307L6.74722 10.2283C6.43718 10.5485 6.22886 10.9533 6.14846 11.3916C5.49286 14.9669 5.44446 18.6269 6.00532 22.2183L6.20388 23.4898C6.2666 23.8914 6.61249 24.1875 7.01897 24.1875H10.791C11.1017 24.1875 11.3535 23.9356 11.3535 23.625V15.75H16.9786V23.625C16.9786 23.9356 17.2304 24.1875 17.5411 24.1875H21.3131C21.7196 24.1875 22.0655 23.8914 22.1282 23.4898L22.3267 22.2183C22.8875 18.6269 22.8392 14.9669 22.1836 11.3916C22.1032 10.9533 21.8948 10.5485 21.5848 10.2283L16.1866 4.65308Z" fill="#109DD4"/>
</svg>
