<svg width="30" height="30" viewBox="0 0 30 30" fill="none" xmlns="http://www.w3.org/2000/svg">
<g clip-path="url(#clip0_1_288)">
<path d="M8.90742 3.21797C8.92207 2.53242 9.50977 1.92246 10.193 1.87969C10.7016 1.86797 11.2107 1.87852 11.7193 1.875C11.7182 2.8125 11.7188 3.75 11.7188 4.6875C11.7188 5.625 11.7182 6.56309 11.7188 7.50059C13.9061 7.50059 16.0934 7.50059 18.2807 7.50059C18.2812 6.5625 18.2812 5.625 18.2812 4.6875C18.2807 3.75 18.2818 2.8125 18.2807 1.875C18.791 1.8791 19.302 1.86738 19.8123 1.87969C20.4955 1.92481 21.0785 2.53711 21.0926 3.22149C21.0955 4.64766 21.0926 6.07441 21.0938 7.50059C23.6156 7.50293 26.1369 7.4959 28.6588 7.5041C29.3373 7.51699 29.9174 8.08828 30 8.75215V15.5191C29.935 15.9738 29.4023 15.9627 29.0619 16.0752C25.0002 17.124 20.9373 18.1705 16.8762 19.2205C16.8732 20.0004 16.8762 20.7809 16.875 21.5607C16.8838 21.8104 16.6611 22.0365 16.4115 22.0307C15.4676 22.0336 14.5236 22.0277 13.5803 22.0336C13.3371 22.023 13.1191 21.8139 13.1268 21.5654C13.1209 21.1002 13.1273 20.635 13.125 20.1697C13.125 19.8521 13.1256 19.5352 13.1238 19.2176C9.0627 18.1664 4.99922 17.1211 0.9375 16.0711C0.604102 15.9574 0.113672 15.9814 0 15.5637V8.75332C0.0796875 8.08652 0.666211 7.51524 1.3459 7.50352C3.86602 7.49649 6.38613 7.50293 8.90625 7.50059C8.90742 6.07266 8.90449 4.64531 8.90742 3.21797Z" fill="#109DD4"/>
<path d="M20.9414 22.5264C21.027 22.4965 21.1195 22.5018 21.2092 22.4994C22.7344 22.5029 24.2596 22.4971 25.7848 22.5023C26.0309 22.4947 26.2523 22.7168 26.2477 22.9629C26.2512 23.5904 26.2512 24.218 26.2477 24.8449C26.2553 25.0939 26.032 25.316 25.7836 25.3102C24.2402 25.3148 22.6963 25.3107 21.1529 25.3125C20.8846 25.3441 20.618 25.1203 20.6273 24.8461C20.6238 24.2191 20.6238 23.5916 20.6273 22.9646C20.6227 22.7707 20.7586 22.5867 20.9414 22.5264Z" fill="white"/>
<path d="M12.5851 13.6372C12.6706 13.6073 12.7632 13.6126 12.8528 13.6102C14.378 13.6137 15.9032 13.6079 17.4284 13.6132C17.6745 13.6055 17.896 13.8276 17.8913 14.0737C17.8948 14.7012 17.8948 15.3288 17.8913 15.9557C17.8989 16.2048 17.6757 16.4268 17.4273 16.421C15.8839 16.4257 14.34 16.4216 12.7966 16.4233C12.5282 16.4549 12.2616 16.2311 12.271 15.9569C12.2675 15.3299 12.2675 14.7024 12.271 14.0755C12.2663 13.8815 12.4023 13.6975 12.5851 13.6372Z" fill="white"/>
<path d="M11.7194 1.875C13.9067 1.875 16.0934 1.875 18.2807 1.875C18.2819 2.8125 18.2807 3.75 18.2813 4.6875C16.094 4.6875 13.9061 4.6875 11.7188 4.6875C11.7188 3.75 11.7182 2.8125 11.7194 1.875Z" fill="#53B966"/>
<path d="M0.937521 17.0385C4.74553 18.024 8.55412 19.0055 12.3627 19.9887C12.6147 20.0572 12.8649 20.1369 13.125 20.1697C13.1274 20.635 13.1209 21.1002 13.1268 21.5654C13.1192 21.8139 13.3371 22.023 13.5803 22.0336C13.6014 22.3084 13.8434 22.5363 14.1252 22.5018C15.041 22.4971 15.9569 22.5047 16.8733 22.4982C17.0977 22.507 17.3268 22.3283 17.3338 22.0957C17.3631 21.4172 17.3227 20.7369 17.3531 20.0584C18.0194 19.9113 18.6727 19.7127 19.3365 19.5557C22.1045 18.8361 24.8748 18.1254 27.644 17.4117C27.6703 18.7553 27.6475 20.1006 27.6563 21.4447C27.651 22.834 27.6651 24.2232 27.6516 25.6119C27.6328 26.3361 26.9701 26.9572 26.2489 26.9461C18.886 26.9478 11.5231 26.9449 4.15959 26.9467C3.09084 26.9549 2.02033 26.9268 0.951584 26.9631C0.938693 26.8424 0.941623 26.7199 0.936935 26.5986C0.938107 23.4123 0.936935 20.2254 0.937521 17.0385ZM20.9414 22.5264C20.7586 22.5867 20.6227 22.7707 20.6274 22.9646C20.6239 23.5916 20.6239 24.2191 20.6274 24.8461C20.618 25.1203 20.8846 25.3441 21.153 25.3125C22.6963 25.3107 24.2403 25.3148 25.7836 25.3102C26.0321 25.316 26.2553 25.0939 26.2477 24.8449C26.2512 24.218 26.2512 23.5904 26.2477 22.9629C26.2524 22.7168 26.0309 22.4947 25.7848 22.5023C24.2596 22.4971 22.7344 22.5029 21.2092 22.4994C21.1196 22.5018 21.027 22.4965 20.9414 22.5264Z" fill="#53B966"/>
<path d="M0.9375 16.0711C4.99922 17.1211 9.06269 18.1664 13.1238 19.2176C13.1256 19.5352 13.125 19.8521 13.125 20.1697C12.8648 20.1369 12.6146 20.0572 12.3627 19.9887C8.5541 19.0055 4.74551 18.024 0.9375 17.0385C0.9375 16.7162 0.9375 16.3934 0.9375 16.0711Z" fill="#4FAF61"/>
<path d="M16.8762 19.2205C20.9373 18.1705 25.0002 17.124 29.0619 16.0752C29.0631 19.6617 29.0625 23.2482 29.0619 26.8348C29.0303 27.5021 28.442 28.091 27.7746 28.125C19.258 28.125 10.7414 28.125 2.2248 28.125C1.60078 28.0928 1.04941 27.5771 0.951561 26.9631C2.02031 26.9268 3.09082 26.9549 4.15957 26.9467C11.523 26.9449 18.8859 26.9479 26.2488 26.9461C26.9701 26.9572 27.6328 26.3361 27.6516 25.6119C27.665 24.2232 27.651 22.834 27.6562 21.4447C27.6475 20.1006 27.6703 18.7553 27.6439 17.4117C24.8748 18.1254 22.1045 18.8361 19.3365 19.5557C18.6727 19.7127 18.0193 19.9113 17.3531 20.0584C17.3227 20.7369 17.3631 21.4172 17.3338 22.0957C17.3268 22.3283 17.0977 22.507 16.8732 22.4982C15.9568 22.5047 15.041 22.4971 14.1252 22.5018C13.8434 22.5363 13.6014 22.3084 13.5803 22.0336C14.5236 22.0277 15.4676 22.0336 16.4115 22.0307C16.6611 22.0365 16.8838 21.8104 16.875 21.5607C16.8762 20.7809 16.8732 20.0004 16.8762 19.2205Z" fill="#4FAF61"/>
</g>
<defs>
<clipPath id="clip0_1_288">
<rect width="30" height="30" fill="white"/>
</clipPath>
</defs>
</svg>
