<svg width="25" height="26" viewBox="0 0 25 26" fill="none" xmlns="http://www.w3.org/2000/svg">
<rect y="0.684242" width="24.6315" height="24.6315" rx="12.3158" fill="#53B966"/>
<path fill-rule="evenodd" clip-rule="evenodd" d="M9.55586 7.85933C11.4171 7.71904 13.2866 7.72825 15.1464 7.88685L16.2673 7.98243C17.1139 8.05464 17.801 8.69717 17.9298 9.53708L18.0004 9.99842C18.2404 11.5639 18.218 13.1585 17.9341 14.7166C17.794 15.4855 17.1243 16.0442 16.3428 16.0442H10.1465C10.0039 16.0442 9.86359 16.0795 9.73802 16.147L7.03843 17.5978C6.87799 17.684 6.68403 17.6796 6.52769 17.5861C6.37136 17.4926 6.27563 17.3239 6.27563 17.1417V11.2623C6.27563 9.48233 7.64753 8.00316 9.42247 7.86938L9.55586 7.85933ZM9.55452 11.2743C9.07797 11.2743 8.69166 11.6606 8.69166 12.1371C8.69166 12.6136 9.07797 13 9.55452 13C10.0311 13 10.4174 12.6136 10.4174 12.1371C10.4174 11.6606 10.0311 11.2743 9.55452 11.2743ZM12.3157 11.2743C11.8391 11.2743 11.4528 11.6606 11.4528 12.1371C11.4528 12.6136 11.8391 13 12.3157 13C12.7923 13 13.1786 12.6136 13.1786 12.1371C13.1786 11.6606 12.7923 11.2743 12.3157 11.2743ZM14.214 12.1371C14.214 11.6606 14.6003 11.2743 15.0769 11.2743C15.5534 11.2743 15.9397 11.6606 15.9397 12.1371C15.9397 12.6136 15.5534 13 15.0769 13C14.6003 13 14.214 12.6136 14.214 12.1371Z" fill="white"/>
</svg>
