<svg width="16" height="21" viewBox="0 0 16 21" fill="none" xmlns="http://www.w3.org/2000/svg">
<g clip-path="url(#clip0_331_513)">
<path fill-rule="evenodd" clip-rule="evenodd" d="M11.6501 2.94124L12.4635 3.04254C14.3408 3.27635 15.75 4.87193 15.75 6.76379V17.2532C15.75 19.0901 14.3817 20.6393 12.5589 20.8663C9.5313 21.2434 6.4687 21.2434 3.44107 20.8663C1.61826 20.6393 0.25 19.0901 0.25 17.2532V6.76379C0.25 4.87193 1.6592 3.27635 3.53655 3.04254L4.3499 2.94124C4.67208 1.7804 5.73654 0.928345 7 0.928345H9C10.2635 0.928345 11.3279 1.7804 11.6501 2.94124ZM4.25 4.46527L3.72193 4.53104C2.59552 4.67133 1.75 5.62868 1.75 6.76379V17.2532C1.75 18.3333 2.55458 19.2443 3.62645 19.3778C6.5309 19.7395 9.4691 19.7395 12.3735 19.3778C13.4454 19.2443 14.25 18.3333 14.25 17.2532V6.76379C14.25 5.62868 13.4045 4.67133 12.2781 4.53104L11.75 4.46527V5.67834C11.75 6.09255 11.4142 6.42834 11 6.42834H5C4.58579 6.42834 4.25 6.09255 4.25 5.67834V4.46527ZM5.75 3.67834C5.75 2.98798 6.3096 2.42834 7 2.42834H9C9.6904 2.42834 10.25 2.98798 10.25 3.67834V4.92834H5.75V3.67834Z" fill="black"/>
<path d="M11.75 10.4283C11.75 10.0141 11.4142 9.67834 11 9.67834H5C4.58579 9.67834 4.25 10.0141 4.25 10.4283C4.25 10.8425 4.58579 11.1783 5 11.1783H11C11.4142 11.1783 11.75 10.8425 11.75 10.4283Z" fill="black"/>
<path d="M10.75 13.4283C10.75 13.0141 10.4142 12.6783 10 12.6783H5C4.58579 12.6783 4.25 13.0141 4.25 13.4283C4.25 13.8425 4.58579 14.1783 5 14.1783H10C10.4142 14.1783 10.75 13.8425 10.75 13.4283Z" fill="black"/>
</g>
<defs>
<clipPath id="clip0_331_513">
<rect width="16" height="20" fill="white" transform="translate(0 0.935669)"/>
</clipPath>
</defs>
</svg>
