<svg width="29" height="29" viewBox="0 0 29 29" fill="none" xmlns="http://www.w3.org/2000/svg">
<path d="M2.418 2.88867C2.41007 2.37268 2.87962 1.91502 3.39505 1.93371C10.7997 1.93315 18.2043 1.93315 25.6089 1.93371C26.1221 1.91785 26.5877 2.37268 26.5815 2.88641C26.5871 8.69094 26.5792 14.4955 26.586 20.3C18.5289 20.3006 10.4717 20.3 2.41403 20.3C2.42083 14.496 2.41347 8.69264 2.418 2.88867ZM4.72157 3.88385C4.47518 3.9252 4.33132 4.18178 4.35114 4.41854C4.34944 8.79856 4.35341 13.1791 4.34888 17.5592C4.35511 17.7829 4.31206 18.0519 4.49104 18.2236C4.67852 18.4173 4.97192 18.3572 5.21434 18.368C11.5009 18.3652 17.7874 18.3669 24.074 18.3674C24.228 18.3669 24.3974 18.3431 24.5078 18.2241C24.6296 18.1131 24.65 17.9398 24.65 17.784C24.6483 13.4612 24.6489 9.13727 24.65 4.81445C24.6438 4.59865 24.6749 4.37492 24.6121 4.16535C24.5339 3.94672 24.2909 3.85043 24.0734 3.86572C17.8622 3.86742 11.6504 3.86629 5.43864 3.86629C5.19962 3.87082 4.9589 3.84873 4.72157 3.88385Z" fill="#E2E7E7"/>
<path d="M4.72156 3.88385C4.95889 3.84873 5.19961 3.87082 5.43863 3.86629C11.6504 3.86629 17.8622 3.86742 24.0734 3.86572C24.2909 3.85043 24.5339 3.94672 24.612 4.16535C24.6749 4.37492 24.6438 4.59865 24.65 4.81445C24.6489 9.13727 24.6483 13.4612 24.65 17.784C24.65 17.9398 24.6296 18.1131 24.5078 18.2241C24.3974 18.3431 24.228 18.3669 24.074 18.3674C17.7874 18.3669 11.5009 18.3652 5.21433 18.368C4.97191 18.3572 4.67851 18.4173 4.49103 18.2236C4.31205 18.0519 4.3551 17.7829 4.34887 17.5592C4.3534 13.1791 4.34943 8.79856 4.35113 4.41854C4.33131 4.18178 4.47517 3.9252 4.72156 3.88385ZM6.91015 5.94274C6.5856 6.26219 6.26389 6.58504 5.9433 6.90846C5.75525 7.08631 5.75469 7.41426 5.94443 7.59154C6.26502 7.9144 6.5856 8.23781 6.90902 8.55727C7.07781 8.73342 7.38027 8.74645 7.56266 8.58389C7.76203 8.42246 7.79092 8.09621 7.61703 7.9059C7.40689 7.68104 7.18146 7.4709 6.96793 7.24887C7.17353 7.03986 7.38537 6.83652 7.58871 6.62526C7.77109 6.44797 7.77053 6.12682 7.58701 5.95066C7.41312 5.76375 7.08857 5.75922 6.91015 5.94274ZM9.9308 5.85608C9.80449 5.91385 9.73029 6.03676 9.67252 6.15684C9.36723 6.77592 9.05344 7.39047 8.74984 8.00955C8.6309 8.23611 8.73625 8.54084 8.96621 8.64959C9.19674 8.7742 9.50939 8.66545 9.61758 8.42813C9.9359 7.79942 10.2491 7.16731 10.5652 6.5369C10.6496 6.3834 10.6575 6.18629 10.5623 6.03563C10.4406 5.82379 10.146 5.73826 9.9308 5.85608ZM11.796 5.90649C11.5739 6.06565 11.5417 6.42022 11.7354 6.61393C11.9427 6.82859 12.1562 7.03703 12.3663 7.24887C12.1568 7.46354 11.9393 7.67084 11.7325 7.88834C11.5564 8.06166 11.5592 8.37318 11.7337 8.54707C11.9047 8.74022 12.2327 8.74871 12.4145 8.56576C12.7481 8.23725 13.08 7.90703 13.4068 7.57172C13.5836 7.3882 13.5671 7.07102 13.3825 6.89883C13.0704 6.58447 12.756 6.27182 12.4422 5.95916C12.2791 5.78301 11.984 5.75356 11.796 5.90649ZM6.58844 9.70141C6.37264 9.7824 6.24066 10.0316 6.29617 10.2559C6.34148 10.4808 6.56465 10.6462 6.79291 10.6326C7.26699 10.6337 7.74107 10.6354 8.21515 10.6314C8.43662 10.636 8.64449 10.4689 8.68754 10.252C8.75437 9.98631 8.54764 9.69461 8.27463 9.67309C7.83849 9.65723 7.4018 9.67252 6.9651 9.66572C6.83935 9.66912 6.70795 9.65496 6.58844 9.70141ZM9.98234 9.69801C9.74502 9.77901 9.60738 10.0633 9.69178 10.3001C9.75691 10.5114 9.97611 10.6479 10.193 10.6331C11.4607 10.6331 12.7277 10.6348 13.9948 10.6326C14.2457 10.6467 14.4819 10.4417 14.4966 10.1896C14.5295 9.90815 14.2723 9.64647 13.9908 9.66742C12.7441 9.66516 11.498 9.66856 10.252 9.66572C10.1613 9.66856 10.0679 9.66516 9.98234 9.69801ZM7.55133 11.6363C7.34006 11.7184 7.20978 11.9608 7.26133 12.1823C7.30381 12.4083 7.52471 12.5765 7.75353 12.5657C9.00246 12.5686 10.2508 12.5646 11.4997 12.5674C11.8764 12.6377 12.2225 12.2146 12.031 11.8673C11.9472 11.6912 11.7512 11.5887 11.5592 11.6C10.3494 11.5989 9.13953 11.6017 7.92912 11.5989C7.80338 11.6023 7.67084 11.5892 7.55133 11.6363ZM7.55642 13.5677C7.32873 13.6515 7.19562 13.9228 7.27096 14.1551C7.33043 14.3629 7.54 14.5102 7.7558 14.4989C8.5516 14.5006 9.34797 14.5017 10.1443 14.4983C10.3947 14.5062 10.6241 14.2927 10.6309 14.0418C10.6535 13.7727 10.4122 13.5218 10.1426 13.5348C9.38535 13.5303 8.62807 13.536 7.87135 13.5326C7.76599 13.5348 7.65611 13.5275 7.55642 13.5677ZM11.9127 13.5654C11.681 13.6464 11.5456 13.9217 11.6215 14.1556C11.681 14.368 11.8985 14.5136 12.1177 14.4994C14.0276 14.5006 15.9375 14.5006 17.8475 14.4994C18.1867 14.5334 18.4711 14.1551 18.3317 13.8396C18.2587 13.6442 18.0514 13.5201 17.8452 13.5337C15.9551 13.532 14.0656 13.5343 12.176 13.5326C12.0877 13.5348 11.9965 13.5326 11.9127 13.5654ZM19.6243 13.5734C19.4272 13.6561 19.3026 13.8798 19.3405 14.0911C19.3711 14.3216 19.588 14.5045 19.8197 14.4983C20.2949 14.5017 20.7701 14.5006 21.2453 14.4989C21.4985 14.5136 21.7364 14.3029 21.7477 14.0491C21.7715 13.7943 21.558 13.5456 21.3014 13.5377C20.867 13.5263 20.4325 13.5377 19.9981 13.532C19.8729 13.5354 19.7421 13.523 19.6243 13.5734ZM7.65781 15.4748C7.38084 15.5076 7.18486 15.8152 7.26926 16.0808C7.32533 16.2944 7.54 16.4445 7.7592 16.4326C8.08092 16.4331 8.4032 16.4382 8.72492 16.4297C8.9866 16.4258 9.2058 16.1754 9.18088 15.9166C9.16955 15.66 8.92826 15.4504 8.67338 15.4674C8.33523 15.4697 7.99596 15.4561 7.65781 15.4748ZM10.5465 15.4765C10.3143 15.5116 10.1341 15.7399 10.1517 15.9744C10.1579 16.2275 10.3913 16.4428 10.6439 16.432C11.7801 16.4326 12.9169 16.4382 14.0525 16.4286C14.3816 16.4207 14.6076 16.0236 14.4485 15.7353C14.3499 15.5184 14.0973 15.4425 13.8758 15.4657C12.7662 15.4748 11.6555 15.4527 10.5465 15.4765ZM15.8718 15.4754C15.6153 15.5076 15.4249 15.7755 15.4742 16.0287C15.5076 16.2638 15.7342 16.4445 15.9704 16.432C17.7081 16.4354 19.4459 16.4314 21.1836 16.4337C21.3241 16.4382 21.4736 16.4133 21.5812 16.3148C21.7681 16.1613 21.8038 15.8622 21.6582 15.6691C21.5563 15.5173 21.3671 15.4544 21.191 15.4663C19.4181 15.4731 17.6441 15.455 15.8718 15.4754Z" fill="#109DD4"/>
<path d="M6.91015 5.94273C7.08856 5.75922 7.41312 5.76375 7.587 5.95066C7.77052 6.12681 7.77108 6.44797 7.5887 6.62525C7.38536 6.83652 7.17353 7.03986 6.96792 7.24887C7.18146 7.4709 7.40688 7.68103 7.61702 7.9059C7.79091 8.09621 7.76202 8.42246 7.56265 8.58389C7.38026 8.74644 7.0778 8.73342 6.90901 8.55726C6.5856 8.23781 6.26501 7.91439 5.94442 7.59154C5.75468 7.41426 5.75524 7.08631 5.94329 6.90846C6.26388 6.58504 6.5856 6.26219 6.91015 5.94273Z" fill="white"/>
<path d="M9.93079 5.85607C10.146 5.73826 10.4406 5.82379 10.5623 6.03562C10.6575 6.18629 10.6496 6.3834 10.5652 6.53689C10.2491 7.1673 9.93589 7.79941 9.61757 8.42813C9.50938 8.66545 9.19673 8.7742 8.9662 8.64959C8.73624 8.54084 8.63089 8.23611 8.74983 8.00955C9.05342 7.39047 9.36721 6.77592 9.67251 6.15684C9.73028 6.03676 9.80448 5.91385 9.93079 5.85607Z" fill="white"/>
<path d="M11.796 5.90648C11.984 5.75355 12.2791 5.78301 12.4422 5.95916C12.756 6.27182 13.0704 6.58447 13.3825 6.89883C13.5671 7.07102 13.5835 7.3882 13.4068 7.57172C13.08 7.90703 12.7481 8.23725 12.4145 8.56576C12.2327 8.74871 11.9047 8.74021 11.7337 8.54707C11.5592 8.37318 11.5564 8.06166 11.7325 7.88834C11.9393 7.67084 12.1568 7.46353 12.3663 7.24887C12.1562 7.03703 11.9427 6.82859 11.7354 6.61392C11.5417 6.42021 11.5739 6.06564 11.796 5.90648Z" fill="white"/>
<path d="M6.58845 9.70141C6.70796 9.65496 6.83937 9.66912 6.96511 9.66572C7.40181 9.67252 7.83851 9.65723 8.27464 9.67309C8.54765 9.69461 8.75439 9.98631 8.68755 10.252C8.64451 10.4689 8.43663 10.636 8.21517 10.6314C7.74109 10.6354 7.26701 10.6337 6.79292 10.6326C6.56466 10.6462 6.3415 10.4808 6.29619 10.2559C6.24068 10.0316 6.37265 9.7824 6.58845 9.70141Z" fill="white"/>
<path d="M7.55133 11.6363C7.67084 11.5892 7.80338 11.6023 7.92912 11.5989C9.13953 11.6017 10.3494 11.5989 11.5592 11.6C11.7512 11.5887 11.9472 11.6912 12.031 11.8673C12.2225 12.2146 11.8764 12.6377 11.4997 12.5674C10.2508 12.5646 9.00246 12.5686 7.75353 12.5657C7.5247 12.5765 7.30381 12.4083 7.26133 12.1823C7.20978 11.9608 7.34006 11.7184 7.55133 11.6363Z" fill="white"/>
<path d="M7.55643 13.5677C7.65611 13.5275 7.766 13.5348 7.87135 13.5326C8.62807 13.536 9.38535 13.5303 10.1426 13.5348C10.4122 13.5218 10.6535 13.7727 10.6309 14.0418C10.6241 14.2927 10.3947 14.5062 10.1443 14.4983C9.34797 14.5017 8.5516 14.5006 7.7558 14.4989C7.54 14.5102 7.33043 14.3629 7.27096 14.1551C7.19562 13.9228 7.32873 13.6515 7.55643 13.5677Z" fill="white"/>
<path d="M7.65783 15.4748C7.99597 15.4561 8.33525 15.4697 8.6734 15.4674C8.92828 15.4504 9.16957 15.66 9.1809 15.9166C9.20582 16.1754 8.98662 16.4258 8.72494 16.4297C8.40322 16.4382 8.08094 16.4331 7.75922 16.4326C7.54002 16.4445 7.32535 16.2944 7.26927 16.0808C7.18488 15.8152 7.38086 15.5076 7.65783 15.4748Z" fill="white"/>
<path d="M9.98234 9.69801C10.0679 9.66516 10.1613 9.66856 10.252 9.66573C11.498 9.66856 12.7441 9.66516 13.9908 9.66742C14.2723 9.64647 14.5295 9.90815 14.4966 10.1897C14.4819 10.4417 14.2457 10.6467 13.9948 10.6326C12.7277 10.6348 11.4607 10.6331 10.193 10.6331C9.97611 10.6479 9.75691 10.5114 9.69178 10.3001C9.60738 10.0633 9.74502 9.77901 9.98234 9.69801Z" fill="white"/>
<path d="M11.9126 13.5654C11.9965 13.5326 12.0877 13.5348 12.176 13.5326C14.0656 13.5343 15.9551 13.532 17.8452 13.5337C18.0514 13.5201 18.2587 13.6442 18.3317 13.8396C18.4711 14.1551 18.1867 14.5334 17.8475 14.4994C15.9375 14.5006 14.0276 14.5006 12.1177 14.4994C11.8985 14.5136 11.681 14.368 11.6215 14.1556C11.5456 13.9217 11.681 13.6464 11.9126 13.5654Z" fill="white"/>
<path d="M10.5465 15.4765C11.6555 15.4527 12.7662 15.4748 13.8758 15.4657C14.0973 15.4425 14.3499 15.5184 14.4485 15.7353C14.6076 16.0236 14.3816 16.4207 14.0525 16.4286C12.9169 16.4382 11.7801 16.4326 10.6439 16.432C10.3913 16.4428 10.1579 16.2275 10.1517 15.9744C10.1341 15.7399 10.3143 15.5116 10.5465 15.4765Z" fill="white"/>
<path d="M19.6243 13.5734C19.7421 13.523 19.8729 13.5354 19.9981 13.532C20.4325 13.5377 20.867 13.5264 21.3014 13.5377C21.558 13.5456 21.7715 13.7943 21.7477 14.0491C21.7364 14.3029 21.4985 14.5136 21.2453 14.4989C20.7701 14.5006 20.2949 14.5017 19.8197 14.4983C19.588 14.5045 19.3711 14.3216 19.3405 14.0911C19.3026 13.8798 19.4272 13.6561 19.6243 13.5734Z" fill="white"/>
<path d="M15.8718 15.4754C17.6441 15.455 19.4181 15.4731 21.191 15.4663C21.3671 15.4544 21.5563 15.5173 21.6582 15.6691C21.8038 15.8622 21.7681 16.1613 21.5812 16.3148C21.4736 16.4133 21.3241 16.4382 21.1836 16.4337C19.4459 16.4315 17.7081 16.4354 15.9704 16.432C15.7342 16.4445 15.5076 16.2638 15.4742 16.0287C15.4249 15.7756 15.6153 15.5076 15.8718 15.4754Z" fill="white"/>
<path d="M2.41403 20.3C10.4717 20.3 18.5289 20.3006 26.586 20.3C27.23 21.912 27.8655 23.5285 28.5248 25.1343C25.6191 25.136 22.7129 25.1286 19.8072 25.1377C19.571 24.4874 19.2963 23.8519 19.0499 23.2051C18.9729 23.0227 18.8851 22.7973 18.6705 22.7452C18.3974 22.6897 18.1159 22.7214 17.8395 22.7163C15.4227 22.7174 13.0053 22.718 10.5884 22.7157C10.4394 22.7225 10.269 22.7271 10.1562 22.8409C10.0282 22.9757 9.97159 23.1587 9.90192 23.3269C9.67309 23.9335 9.41084 24.5271 9.19278 25.1377C6.28711 25.1292 3.38088 25.1348 0.47522 25.1348C1.13452 23.5285 1.77002 21.9126 2.41403 20.3Z" fill="#53B966"/>
<path d="M10.1562 22.8409C10.269 22.7271 10.4394 22.7225 10.5884 22.7157C13.0053 22.718 15.4227 22.7174 17.8395 22.7163C18.1159 22.7214 18.3975 22.6897 18.6705 22.7452C18.8851 22.7973 18.9729 23.0227 19.05 23.2051C19.2963 23.8519 19.571 24.4874 19.8072 25.1377C16.2695 25.1428 12.7311 25.1428 9.19278 25.1377C9.41085 24.5271 9.6731 23.9335 9.90192 23.3269C9.97159 23.1587 10.0282 22.9757 10.1562 22.8409Z" fill="#449352"/>
<path d="M0.46898 26.5673C0.47068 26.0898 0.459918 25.6118 0.475211 25.1348C3.38087 25.1348 6.28711 25.1292 9.19277 25.1377C12.7311 25.1428 16.2695 25.1428 19.8072 25.1377C22.7129 25.1286 25.6191 25.136 28.5248 25.1343C28.5401 25.6106 28.5293 26.0881 28.531 26.565C28.5344 26.8273 28.3135 27.0822 28.0439 27.0731C19.0137 27.0737 9.98404 27.0742 0.954391 27.0731C0.685914 27.081 0.465015 26.8284 0.46898 26.5673Z" fill="#4AA25A"/>
</svg>
