<svg width="19" height="19" viewBox="0 0 19 19" fill="none" xmlns="http://www.w3.org/2000/svg">
<path d="M6.82269 2.46368C4.41538 2.46368 2.46387 4.41519 2.46387 6.82251V12.2099C2.46387 12.5239 2.71842 12.7785 3.03241 12.7785C3.3464 12.7785 3.60095 12.5239 3.60095 12.2099V6.82251C3.60095 5.04319 5.04337 3.60077 6.82269 3.60077H12.1389C12.4529 3.60077 12.7074 3.34622 12.7074 3.03223C12.7074 2.71823 12.4529 2.46368 12.1389 2.46368H6.82269Z" fill="#7D7D7D"/>
<path fill-rule="evenodd" clip-rule="evenodd" d="M13.9503 5.14968C11.4934 4.8751 8.97426 4.8751 6.51746 5.14968C5.81756 5.2279 5.25514 5.7787 5.17264 6.48402C4.88126 8.97539 4.88126 11.4921 5.17264 13.9835C5.25514 14.6889 5.81756 15.2396 6.51746 15.3178C8.97426 15.5925 11.4934 15.5925 13.9503 15.3178C14.6501 15.2396 15.2126 14.6889 15.2951 13.9835C15.5865 11.4921 15.5865 8.97539 15.2951 6.48402C15.2126 5.7787 14.6501 5.2279 13.9503 5.14968ZM6.64376 6.27973C9.01664 6.01452 11.4511 6.01452 13.8239 6.27973C14.0039 6.29983 14.1453 6.44213 14.1657 6.61612C14.4468 9.01966 14.4468 11.4479 14.1657 13.8514C14.1453 14.0254 14.0039 14.1677 13.8239 14.1878C11.4511 14.453 9.01664 14.453 6.64376 14.1878C6.46384 14.1677 6.32237 14.0254 6.30203 13.8514C6.02091 11.4479 6.02091 9.01966 6.30203 6.61612C6.32237 6.44213 6.46384 6.29983 6.64376 6.27973Z" fill="#7D7D7D"/>
</svg>
