<svg width="20" height="21" viewBox="0 0 20 21" fill="none" xmlns="http://www.w3.org/2000/svg">
<path d="M8.33317 1.90726C7.988 1.90726 7.70817 2.18708 7.70817 2.53226V3.15726H4.1665C3.82133 3.15726 3.5415 3.43708 3.5415 3.78226C3.5415 4.12743 3.82133 4.40726 4.1665 4.40726H15.8332C16.1783 4.40726 16.4582 4.12743 16.4582 3.78226C16.4582 3.43708 16.1783 3.15726 15.8332 3.15726H12.2915V2.53226C12.2915 2.18708 12.0117 1.90726 11.6665 1.90726H8.33317Z" fill="#DA2525"/>
<path d="M8.33301 8.90727C8.67817 8.90727 8.95801 9.18711 8.95801 9.53227V15.3656C8.95801 15.7108 8.67817 15.9906 8.33301 15.9906C7.98783 15.9906 7.70801 15.7108 7.70801 15.3656V9.53227C7.70801 9.18711 7.98783 8.90727 8.33301 8.90727Z" fill="#DA2525"/>
<path d="M12.292 9.53227C12.292 9.18711 12.0122 8.90727 11.667 8.90727C11.3218 8.90727 11.042 9.18711 11.042 9.53227V15.3656C11.042 15.7108 11.3218 15.9906 11.667 15.9906C12.0122 15.9906 12.292 15.7108 12.292 15.3656V9.53227Z" fill="#DA2525"/>
<path fill-rule="evenodd" clip-rule="evenodd" d="M4.99267 6.6299C5.02784 6.31337 5.29538 6.07391 5.61385 6.07391H14.3858C14.7042 6.07391 14.9718 6.31337 15.007 6.6299L15.1737 8.13101C15.4761 10.8521 15.4761 13.5983 15.1737 16.3194L15.1573 16.4672C15.0373 17.5473 14.2002 18.4087 13.1239 18.5593C11.0513 18.8495 8.94832 18.8495 6.87572 18.5593C5.79943 18.4087 4.96232 17.5473 4.8423 16.4672L4.82588 16.3194C4.52353 13.5983 4.52353 10.8521 4.82588 8.13101L4.99267 6.6299ZM6.17325 7.32391L6.06823 8.26905C5.77608 10.8984 5.77608 13.5521 6.06823 16.1814L6.08465 16.3292C6.14158 16.8414 6.53858 17.2499 7.04903 17.3214C9.00665 17.5954 10.993 17.5954 12.9506 17.3214C13.4611 17.2499 13.8581 16.8414 13.915 16.3292L13.9314 16.1814C14.2236 13.5521 14.2236 10.8984 13.9314 8.26905L13.8264 7.32391H6.17325Z" fill="#DA2525"/>
</svg>
