<svg width="29" height="29" viewBox="0 0 29 29" fill="none" xmlns="http://www.w3.org/2000/svg">
<path d="M24.3719 0H24.4404C24.5866 0.216367 24.7808 0.393086 24.9474 0.593027C26.0014 1.8159 26.9604 3.13279 27.6922 4.57543C28.2303 5.65443 28.6602 6.82406 28.6805 8.0424C28.6987 8.93336 28.4279 9.83904 27.8655 10.5374C27.6202 10.854 27.3189 11.1208 27.0046 11.3661C26.6998 11.3717 26.3951 11.3746 26.0915 11.3598C25.7047 11.3049 25.3116 11.3383 24.9224 11.3355C24.6172 11.378 24.3119 11.3191 24.006 11.3344C23.2317 10.1953 22.7735 8.80309 22.9111 7.41766C23.072 5.63461 24.0213 4.0566 24.3674 2.31717C24.5073 1.63521 24.5396 0.930039 24.4472 0.239023C24.4223 0.292266 24.398 0.346074 24.3753 0.400449C24.3866 0.279805 24.3883 0.158027 24.3832 0.0368164L24.3719 0Z" fill="#109DD4"/>
<path d="M5.22454 12.9316C5.85778 12.8552 6.51991 13.0256 7.02741 13.4153C7.61534 13.8537 7.99143 14.5617 8.01919 15.2952C8.05997 16.0486 7.73088 16.8087 7.15768 17.2986C6.64452 17.7483 5.93991 17.9664 5.26192 17.8911C4.45876 17.8123 3.7145 17.3105 3.33331 16.6008C2.94362 15.8968 2.93059 15.0013 3.29819 14.2853C3.66352 13.5518 4.40948 13.0256 5.22454 12.9316Z" fill="#109DD4"/>
<path d="M24.3753 0.400455C24.3979 0.34608 24.4223 0.292271 24.4472 0.239029C24.5395 0.930045 24.5073 1.63522 24.3674 2.31717C24.0213 4.05661 23.072 5.63462 22.9111 7.41766C22.7735 8.80309 23.2317 10.1953 24.006 11.3344C24.3118 11.3191 24.6171 11.378 24.9224 11.3355C25.3116 11.3383 25.7046 11.3049 26.0915 11.3598L26.0949 11.3604C25.9318 11.3853 25.7664 11.3848 25.6021 11.3808C24.9598 11.3802 24.3175 11.3899 23.6758 11.378C23.0765 11.3287 22.475 11.3366 21.8746 11.3395C21.8825 11.4686 21.8905 11.5983 21.9024 11.728C21.8848 11.6006 21.8706 11.4726 21.8599 11.3446C21.4538 11.1514 21.0839 10.8784 20.795 10.5329C20.2603 9.90645 19.9987 9.0846 19.9601 8.27067C19.9239 7.25737 20.2264 6.23727 20.8013 5.40296C21.1859 4.83258 21.7183 4.38852 22.1844 3.88895C22.8267 3.20077 23.4713 2.49672 23.9312 1.6692C24.1521 1.27612 24.3022 0.84565 24.3753 0.400455Z" fill="#109DD4"/>
<path d="M10.0498 1.11186C12.1075 0.478613 14.3057 0.429336 16.4286 0.707441C17.0658 0.787871 17.6504 1.18209 17.967 1.74C18.3776 2.43441 18.3357 3.37408 17.8333 4.01129C17.6067 4.32225 17.2703 4.51992 16.9395 4.7006C16.364 5.02969 15.8254 5.42504 15.3507 5.88779C14.6473 6.57711 14.0627 7.44371 13.8973 8.43039C13.7506 9.25961 13.9857 10.1415 14.5164 10.7934C15.1355 11.566 16.0582 12.0327 16.9984 12.2887C18.513 12.6909 20.125 12.598 21.6311 12.2044C21.7206 12.176 21.8106 12.1449 21.8933 12.0984C21.9352 12.2355 21.955 12.3777 21.9664 12.5198C22.0083 13.5212 22.1097 14.5193 22.1601 15.5207C22.1901 15.8985 22.27 16.2712 22.2496 16.6523C22.2309 16.4677 22.2252 16.2796 22.1748 16.0995C21.5903 16.1771 21.0199 16.4586 20.6761 16.9491C20.1714 17.6198 20.155 18.6036 20.6314 19.2935C21.0318 19.9018 21.7704 20.2479 22.4943 20.1958C22.6206 22.0632 22.7452 23.9307 22.8862 25.7975C21.2827 27.0147 19.4141 27.8808 17.4476 28.3146C14.9916 28.8658 12.3862 28.7429 9.99764 27.9454C7.08518 26.9961 4.50293 25.068 2.7686 22.543C1.39789 20.556 0.555082 18.2094 0.341547 15.805C0.168793 13.8753 0.397055 11.9104 1.00707 10.0713C1.69639 7.98066 2.87338 6.04979 4.43157 4.4933C5.98862 2.92719 7.93422 1.74906 10.0498 1.11186ZM7.10784 5.92971C6.26955 6.09793 5.54172 6.72721 5.26305 7.53604C4.96399 8.35393 5.13844 9.32361 5.70995 9.98121C6.18176 10.5437 6.91129 10.8812 7.64649 10.862C8.36186 10.8631 9.06364 10.5216 9.52073 9.97328C9.96819 9.44652 10.1778 8.72719 10.082 8.04297C9.99764 7.38084 9.63118 6.76289 9.09422 6.36811C8.53518 5.94557 7.79205 5.78867 7.10784 5.92971ZM5.22453 12.9316C4.40948 13.0256 3.66352 13.5518 3.29819 14.2853C2.93059 15.0013 2.94362 15.8968 3.33331 16.6008C3.7145 17.3105 4.45875 17.8123 5.26192 17.8911C5.93991 17.9664 6.64452 17.7483 7.15768 17.2986C7.73088 16.8087 8.05997 16.0486 8.01918 15.2952C7.99143 14.5617 7.61534 13.8537 7.02741 13.4153C6.51991 13.0256 5.85778 12.8552 5.22453 12.9316ZM9.14293 19.063C8.25254 19.2521 7.49922 19.9641 7.26926 20.846C7.06932 21.5682 7.21659 22.3764 7.66518 22.9774C8.11547 23.5965 8.862 23.9896 9.62891 23.9964C10.3777 24.0173 11.1242 23.6746 11.5983 23.0946C12.0271 22.5843 12.2332 21.8961 12.1585 21.234C12.0837 20.4796 11.6374 19.7761 10.9928 19.3796C10.4491 19.0369 9.76938 18.927 9.14293 19.063ZM16.3912 20.7622C15.5654 20.8562 14.811 21.3971 14.4507 22.1454C14.0945 22.8641 14.1182 23.7562 14.5136 24.4546C14.8891 25.1331 15.5954 25.6174 16.3657 25.7137C17.0131 25.8021 17.6923 25.6237 18.2094 25.2232C18.8087 24.7701 19.1825 24.0349 19.1887 23.2827C19.2074 22.5588 18.8857 21.8378 18.3397 21.3631C17.8157 20.8964 17.0868 20.6755 16.3912 20.7622Z" fill="#E3E8E8"/>
<path d="M27.0074 11.3734C27.0012 11.5128 26.9876 11.6521 26.9728 11.7914C27.8627 12.3975 28.4529 13.4238 28.4931 14.5034C28.5089 17.2607 27.6616 20.0026 26.1515 22.3045C26.2784 20.4524 26.4319 18.6019 26.5797 16.7509C26.7259 14.9588 26.8488 13.1644 27.0074 11.3734Z" fill="#E3E8E8"/>
<path d="M7.10783 5.92971C7.79205 5.78867 8.53518 5.94556 9.09422 6.3681C9.63117 6.76289 9.99764 7.38084 10.082 8.04297C10.1778 8.72719 9.96818 9.44652 9.52072 9.97328C9.06363 10.5216 8.36186 10.8631 7.64649 10.862C6.91129 10.8812 6.18176 10.5437 5.70994 9.98121C5.13844 9.32361 4.96398 8.35392 5.26305 7.53603C5.54172 6.72721 6.26955 6.09793 7.10783 5.92971Z" fill="#109DD4"/>
<path d="M22.2564 16.752C22.7656 16.7832 23.2765 16.7883 23.7851 16.7413C24.7163 16.7379 25.648 16.7475 26.5798 16.7509C26.4319 18.6019 26.2784 20.4524 26.1516 22.3045C25.9856 24.2682 25.8468 26.2348 25.6843 28.1991C25.6084 28.7021 25.0567 28.9258 24.6126 29H24.1295C23.7075 28.9184 23.1909 28.7349 23.072 28.271C22.9831 27.4492 22.9542 26.6217 22.8862 25.7975C22.7452 23.9307 22.6206 22.0632 22.4943 20.1958C22.4212 19.0471 22.3368 17.8996 22.2564 16.752Z" fill="#082668"/>
<path d="M21.8746 11.3395C22.475 11.3366 23.0765 11.3287 23.6758 11.378C24.3175 11.3899 24.9598 11.3802 25.6021 11.3808C25.7664 11.3848 25.9318 11.3853 26.0949 11.3604C26.3985 11.3825 26.7032 11.3831 27.0074 11.3734C26.8488 13.1644 26.7259 14.9588 26.5797 16.7509C25.648 16.7475 24.7163 16.7379 23.7851 16.7413C23.2765 16.7883 22.7656 16.7832 22.2564 16.752C22.2547 16.7271 22.2513 16.6773 22.2496 16.6523C22.27 16.2712 22.1901 15.8985 22.1601 15.5207C22.1097 14.5193 22.0083 13.5212 21.9664 12.5198C21.9618 12.3448 21.9686 12.1687 21.9397 11.9959C21.925 11.9064 21.9126 11.8175 21.9024 11.728C21.8905 11.5983 21.8825 11.4686 21.8746 11.3395Z" fill="#53B966"/>
<path d="M9.14293 19.063C9.76938 18.927 10.4491 19.0369 10.9928 19.3796C11.6374 19.7761 12.0837 20.4796 12.1585 21.234C12.2332 21.8961 12.0271 22.5843 11.5983 23.0946C11.1242 23.6746 10.3777 24.0173 9.62891 23.9964C8.86199 23.9896 8.11547 23.5965 7.66518 22.9774C7.21658 22.3764 7.06932 21.5682 7.26926 20.846C7.49922 19.9641 8.25254 19.2521 9.14293 19.063Z" fill="#53B966"/>
<path d="M16.3912 20.7622C17.0868 20.6755 17.8157 20.8964 18.3397 21.3631C18.8857 21.8378 19.2074 22.5588 19.1887 23.2827C19.1825 24.0349 18.8086 24.7701 18.2094 25.2232C17.6923 25.6237 17.0131 25.8021 16.3657 25.7137C15.5954 25.6174 14.8891 25.1331 14.5136 24.4546C14.1182 23.7562 14.0944 22.8641 14.4507 22.1454C14.8109 21.3971 15.5654 20.8562 16.3912 20.7622Z" fill="#53B966"/>
</svg>
