<svg width="20" height="21" viewBox="0 0 20 21" fill="none" xmlns="http://www.w3.org/2000/svg">
<path fill-rule="evenodd" clip-rule="evenodd" d="M8.90817 3.17953C8.26638 3.17953 7.73104 3.67 7.675 4.30932C7.55783 5.64599 7.52818 6.98862 7.58613 8.32861C7.51618 8.3333 7.44623 8.33819 7.37629 8.34329L6.14064 8.43336C5.35085 8.49094 4.90935 9.37161 5.33574 10.0388C6.24509 11.462 7.41682 12.6992 8.78846 13.6845L9.28347 14.0401C9.6849 14.3285 10.2254 14.3285 10.6268 14.0401L11.1219 13.6845C12.4935 12.6992 13.6653 11.462 14.5745 10.0388C15.0009 9.37161 14.5594 8.49094 13.7697 8.43336L12.5341 8.34329C12.4641 8.33819 12.3941 8.3333 12.3242 8.32861C12.3822 6.98862 12.3525 5.64599 12.2353 4.30931C12.1792 3.67 11.6439 3.17953 11.0022 3.17953H8.90817ZM8.86138 8.87428C8.76706 7.39167 8.78465 5.90398 8.91406 4.42389H10.9962C11.1257 5.90398 11.1433 7.39167 11.049 8.87428C11.0383 9.04053 11.0949 9.20403 11.2058 9.3283C11.3167 9.45249 11.4729 9.52707 11.6393 9.5352C11.9075 9.54847 12.1756 9.56481 12.4435 9.58439L13.341 9.64976C12.5449 10.8222 11.5482 11.8461 10.3958 12.6739L9.95517 12.9904L9.51442 12.6739C8.36206 11.8461 7.36537 10.8222 6.56936 9.64976L7.46676 9.58439C7.7347 9.56481 8.00281 9.54847 8.27105 9.5352C8.43739 9.52707 8.59351 9.45249 8.70451 9.3283C8.81542 9.20403 8.87192 9.04053 8.86138 8.87428Z" fill="#109DD4"/>
<path d="M4.76974 14.5861C4.76974 14.2425 4.49118 13.9639 4.14757 13.9639C3.80395 13.9639 3.52539 14.2425 3.52539 14.5861V16.2453C3.52539 17.047 4.17536 17.697 4.97714 17.697H14.932C15.7337 17.697 16.3837 17.047 16.3837 16.2453V14.5861C16.3837 14.2425 16.1051 13.9639 15.7615 13.9639C15.4179 13.9639 15.1394 14.2425 15.1394 14.5861V16.2453C15.1394 16.3598 15.0465 16.4526 14.932 16.4526H4.97714C4.8626 16.4526 4.76974 16.3598 4.76974 16.2453V14.5861Z" fill="#109DD4"/>
</svg>
