<svg width="30" height="31" viewBox="0 0 30 31" fill="none" xmlns="http://www.w3.org/2000/svg">
<path fill-rule="evenodd" clip-rule="evenodd" d="M17.0798 8.2289C17.0798 8.74667 17.4996 9.1664 18.0173 9.1664H21.1332V12.2822C21.1332 12.8 21.5528 13.2197 22.0707 13.2197C22.5885 13.2197 23.0082 12.8 23.0082 12.2822V8.22891C23.0082 7.71113 22.5885 7.29141 22.0707 7.29141L18.0173 7.2914C17.4996 7.2914 17.0798 7.71113 17.0798 8.2289Z" fill="white"/>
<path fill-rule="evenodd" clip-rule="evenodd" d="M22.0706 17.3802C21.5528 17.3802 21.1331 17.8 21.1331 18.3177V21.4335H18.0173C17.4996 21.4335 17.0798 21.8532 17.0798 22.371C17.0798 22.8889 17.4996 23.3085 18.0173 23.3085H22.0706C22.5883 23.3085 23.0081 22.8889 23.0081 22.371V18.3177C23.0081 17.8 22.5883 17.3802 22.0706 17.3802Z" fill="white"/>
<path fill-rule="evenodd" clip-rule="evenodd" d="M7.92871 17.3802C8.44647 17.3802 8.86621 17.8 8.86621 18.3177V21.4335H11.982C12.4998 21.4335 12.9195 21.8532 12.9195 22.371C12.9195 22.8889 12.4998 23.3085 11.982 23.3085H7.92871C7.41094 23.3085 6.99121 22.8889 6.99121 22.371V18.3177C6.99121 17.8 7.41094 17.3802 7.92871 17.3802Z" fill="white"/>
<path fill-rule="evenodd" clip-rule="evenodd" d="M12.9191 8.2289C12.9191 8.74667 12.4993 9.1664 11.9815 9.1664H8.86572V12.2822C8.86572 12.8 8.44599 13.2197 7.92822 13.2197C7.41046 13.2197 6.99072 12.8 6.99072 12.2822V8.2289C6.99072 7.71113 7.41046 7.2914 7.92822 7.2914H11.9815C12.4993 7.2914 12.9191 7.71113 12.9191 8.2289Z" fill="white"/>
</svg>
