<svg width="26" height="26" viewBox="0 0 26 26" fill="none" xmlns="http://www.w3.org/2000/svg">
<path fill-rule="evenodd" clip-rule="evenodd" d="M3.86894 9.35274C4.23838 4.8708 7.98373 1.42147 12.4808 1.42147H12.9313C17.4284 1.42147 21.1737 4.8708 21.5431 9.35274C21.7416 11.7604 20.9979 14.1511 19.4687 16.0213L14.4713 22.1331C13.5589 23.2488 11.8532 23.2488 10.9408 22.1331L5.94339 16.0213C4.41418 14.1511 3.67048 11.7604 3.86894 9.35274ZM12.4808 2.98545C8.79767 2.98545 5.7302 5.81048 5.42763 9.48123C5.26246 11.485 5.88142 13.4747 7.15414 15.0313L12.1516 21.1431C12.4382 21.4935 12.9739 21.4935 13.2605 21.1431L18.2579 15.0313C19.5307 13.4747 20.1496 11.485 19.9845 9.48123C19.6819 5.81048 16.6144 2.98545 12.9313 2.98545H12.4808Z" fill="#109DD4"/>
<path d="M13.7489 16.8005C13.7489 17.3764 13.2821 17.8432 12.7062 17.8432C12.1304 17.8432 11.6636 17.3764 11.6636 16.8005C11.6636 16.2247 12.1304 15.7579 12.7062 15.7579C13.2821 15.7579 13.7489 16.2247 13.7489 16.8005Z" fill="#109DD4"/>
<path fill-rule="evenodd" clip-rule="evenodd" d="M12.706 8.19869C11.7189 8.19869 10.8814 9.02803 10.8814 10.0978C10.8814 10.5297 10.5312 10.8798 10.0994 10.8798C9.66749 10.8798 9.31738 10.5297 9.31738 10.0978C9.31738 8.2061 10.8139 6.63472 12.706 6.63472C14.5981 6.63472 16.0946 8.2061 16.0946 10.0978C16.0946 11.5898 15.1685 12.8748 13.8508 13.358C13.7211 13.4057 13.6155 13.4785 13.5518 13.5494C13.4921 13.6158 13.488 13.6563 13.488 13.6726C13.488 14.1045 13.1379 14.4546 12.706 14.4546C12.2741 14.4546 11.924 14.1045 11.924 13.6726C11.924 12.7096 12.6992 12.1146 13.3124 11.8897C14.0125 11.633 14.5306 10.9353 14.5306 10.0978C14.5306 9.02803 13.6931 8.19869 12.706 8.19869Z" fill="#109DD4"/>
</svg>
