<svg width="34" height="34" viewBox="0 0 34 34" fill="none" xmlns="http://www.w3.org/2000/svg">
<g clip-path="url(#clip0_41_1038)">
<path d="M33.2224 0H33.4037C33.7105 0.0571094 33.9555 0.304805 34 0.614922V0.822109C33.8891 2.05262 33.8088 3.28578 33.7052 4.51695C33.6852 4.89348 33.3764 5.22816 32.9999 5.27C32.7436 5.30918 32.4833 5.20559 32.304 5.0243C32.0218 4.74937 31.7482 4.46516 31.4679 4.18891C29.6889 5.96926 27.9119 7.75027 26.1335 9.53062C25.9011 9.76305 25.6753 10.0094 25.3918 10.1814C24.4714 10.7757 23.1625 10.5898 22.43 9.77965C21.5887 8.93762 20.7486 8.09492 19.9059 7.25555C19.6888 7.0125 19.2804 6.99258 19.0539 7.23297C16.2084 10.0752 13.3656 12.9213 10.5221 15.7655C10.2133 16.0856 9.82414 16.332 9.39184 16.4429C8.6182 16.6547 7.74629 16.4282 7.17254 15.8678C6.69176 15.3983 6.2216 14.9168 5.74613 14.4427C5.52434 14.1731 5.08406 14.1412 4.84699 14.4075C3.90336 15.3458 2.96305 16.2888 2.01941 17.2278C1.70996 17.5485 1.2159 17.672 0.794219 17.5226C0.358594 17.3825 0.0431641 16.9681 0 16.5146V16.3114C0.0385156 16.0152 0.181289 15.7416 0.40043 15.5397C1.48617 14.458 2.56328 13.3682 3.65035 12.2878C4.2666 11.6802 5.23148 11.4677 6.04563 11.7605C6.47594 11.8993 6.83187 12.1929 7.13801 12.5169C7.69051 13.0701 8.24168 13.6246 8.79684 14.1751C11.7825 11.1848 14.7721 8.19918 17.7584 5.20957C18.1229 4.83105 18.609 4.56875 19.1316 4.49769C19.8535 4.3868 20.6158 4.64312 21.1291 5.16242C21.9845 6.01441 22.8371 6.86973 23.6911 7.72371C23.8299 7.86914 24.0271 7.97273 24.233 7.93887C24.4807 7.90898 24.64 7.69914 24.808 7.53777C26.4742 5.86633 28.1456 4.19953 29.8131 2.52941C29.501 2.19937 29.1517 1.90387 28.8635 1.55324C28.5195 1.09238 28.8535 0.353945 29.4253 0.304141C30.6903 0.193906 31.9573 0.108906 33.2224 0Z" fill="#4FBA6F"/>
<path d="M26.5009 12.2154C27.7195 11.6417 29.1612 11.57 30.4335 12.0082C31.5126 12.3735 32.4616 13.1046 33.0971 14.0496C33.6529 14.8644 33.9603 15.8385 34.0002 16.8227V17.2291C33.9325 18.6681 33.2604 20.0686 32.1601 21.0023C31.1905 21.8423 29.9049 22.3045 28.6219 22.272C27.327 22.2567 26.05 21.7308 25.1104 20.8416C24.3387 20.1198 23.7929 19.1602 23.5698 18.1269C23.3334 17.0412 23.4456 15.881 23.8985 14.865C24.4085 13.7062 25.3514 12.746 26.5009 12.2154ZM28.3152 13.6505C28.1644 13.7819 28.1511 13.9905 28.1199 14.1744C27.7985 14.3165 27.495 14.5171 27.2945 14.8112C26.8987 15.3505 26.8595 16.1188 27.1949 16.6965C27.4904 17.2291 28.0781 17.5737 28.6864 17.5857C28.9726 17.5744 29.2508 17.775 29.2986 18.0632C29.3889 18.4476 29.0051 18.8341 28.62 18.7478C28.2461 18.7033 28.1604 18.1867 27.7633 18.1907C27.3788 18.1448 27.0348 18.5519 27.153 18.9238C27.3111 19.3554 27.7155 19.641 28.1239 19.8163C28.1525 19.9903 28.1564 20.1875 28.2893 20.321C28.5057 20.5773 28.9407 20.5773 29.1592 20.3236C29.29 20.1928 29.2966 19.9989 29.3285 19.8276C29.9209 19.5905 30.387 19.0453 30.466 18.4038C30.5783 17.6548 30.1413 16.8698 29.4467 16.5697C29.1897 16.4415 28.9002 16.4309 28.6219 16.3964C28.2899 16.3618 28.0648 15.9866 28.1598 15.6739C28.2341 15.3671 28.5854 15.1692 28.8862 15.2648C29.1997 15.3392 29.2807 15.7562 29.6134 15.798C30.0178 15.9016 30.4229 15.4753 30.2954 15.0769C30.1373 14.6432 29.7316 14.3597 29.3252 14.1791C29.2966 14.0051 29.2913 13.8085 29.1578 13.6764C28.9487 13.434 28.5389 13.4194 28.3152 13.6505Z" fill="#E0E5E5"/>
<path d="M15.2085 16.7278C16.3746 16.3008 17.6934 16.3134 18.8555 16.749C19.9479 17.1574 20.8942 17.941 21.4998 18.9365C22.1314 19.9578 22.3897 21.2002 22.2283 22.3889C22.0689 23.6261 21.4467 24.7935 20.5157 25.6216C19.6405 26.4125 18.4923 26.8866 17.3156 26.9577C17.1051 26.9577 16.8946 26.959 16.6847 26.9583C15.4788 26.8846 14.3034 26.3859 13.4189 25.5618C12.5396 24.7536 11.9486 23.6387 11.7806 22.456C11.6232 21.3902 11.7992 20.2772 12.2873 19.3156C12.8856 18.1243 13.9521 17.176 15.2085 16.7278ZM16.5712 18.3607C16.437 18.4909 16.4244 18.6861 16.3985 18.8601C15.8394 19.0865 15.3845 19.5786 15.2762 20.1809C15.1082 20.9539 15.5432 21.7986 16.267 22.116C16.526 22.2488 16.8202 22.2568 17.1037 22.292C17.3979 22.3278 17.6191 22.6293 17.5812 22.9208C17.5566 23.2608 17.1941 23.5218 16.8634 23.4308C16.5373 23.375 16.4589 22.9547 16.1342 22.8956C15.7205 22.7714 15.2928 23.2124 15.4303 23.6221C15.595 24.0477 15.9934 24.3273 16.3965 24.5073C16.4244 24.6952 16.4417 24.9084 16.5964 25.0412C16.8096 25.2603 17.1934 25.2563 17.4085 25.0418C17.5573 24.909 17.5759 24.6992 17.6084 24.5152C17.8541 24.3957 18.1005 24.2636 18.2844 24.0564C18.7825 23.5391 18.902 22.7063 18.5707 22.0688C18.2851 21.4798 17.6496 21.1033 16.9995 21.1C16.6608 21.1086 16.3686 20.7845 16.4191 20.4485C16.449 20.1012 16.8302 19.8475 17.1622 19.9545C17.4809 20.0268 17.546 20.4425 17.8674 20.5109C18.2844 20.6491 18.7294 20.2035 18.5873 19.7865C18.4219 19.3601 18.0354 19.052 17.6191 18.8873C17.5779 18.6941 17.56 18.4703 17.3999 18.3322C17.1768 18.1117 16.7777 18.125 16.5712 18.3607Z" fill="#E0E5E5"/>
<path d="M2.29766 22.0249C3.26785 21.3549 4.46781 21.0315 5.6432 21.1171C6.7482 21.1895 7.82531 21.6251 8.67 22.3403C9.54855 23.0768 10.1774 24.1067 10.4245 25.2264C10.6941 26.4283 10.5287 27.7239 9.95496 28.8156C9.37324 29.9385 8.37383 30.837 7.19445 31.2939C6.32387 31.6419 5.36098 31.7202 4.43727 31.5881C3.13504 31.3829 1.92445 30.665 1.11762 29.6238C0.438945 28.7665 0.0537891 27.6927 0 26.6023V26.1833C0.0551172 24.5371 0.931016 22.946 2.29766 22.0249ZM4.84898 23.0489C4.71086 23.1777 4.70289 23.375 4.67633 23.5503C4.21945 23.7415 3.81836 24.0921 3.64238 24.5636C3.36215 25.2396 3.57 26.0764 4.13313 26.5432C4.45652 26.8327 4.88883 26.9576 5.31516 26.9735C5.64188 26.9782 5.90551 27.3049 5.8557 27.625C5.8225 27.959 5.46457 28.208 5.13918 28.121C4.7952 28.0626 4.73078 27.609 4.38613 27.5526C3.97773 27.4357 3.5607 27.862 3.68355 28.2671C3.84559 28.7127 4.25398 29.0142 4.67434 29.1981C4.70355 29.3688 4.7082 29.562 4.83637 29.6948C5.04422 29.9459 5.46324 29.9605 5.68902 29.726C5.83711 29.5932 5.8484 29.3841 5.88426 29.2021C6.55098 28.9478 7.04105 28.281 7.03309 27.5605C7.04969 26.8447 6.57687 26.1534 5.90484 25.9083C5.65516 25.8021 5.37957 25.8114 5.1166 25.7656C4.80848 25.6958 4.61723 25.3359 4.71551 25.0391C4.79652 24.7376 5.14582 24.5497 5.44266 24.646C5.76605 24.725 5.83512 25.1586 6.17578 25.2084C6.5709 25.312 6.97664 24.9103 6.87305 24.5138C6.72496 24.053 6.29996 23.7468 5.8743 23.5569C5.8484 23.3823 5.84309 23.1844 5.70695 23.0529C5.49246 22.8045 5.06613 22.8012 4.84898 23.0489Z" fill="#E0E5E5"/>
<path d="M24.2485 25.1175C24.4676 24.8007 24.8514 24.6055 25.2386 24.6254C27.5814 24.6254 29.9249 24.6228 32.2677 24.6261C32.6655 24.6214 33.0486 24.8525 33.2492 25.1925C33.4776 25.569 33.4657 26.0764 33.218 26.441C33.028 26.7378 32.694 26.9257 32.3467 26.9649C29.9302 26.9576 27.5137 26.9583 25.0971 26.9649C24.7193 26.9224 24.3627 26.6986 24.1814 26.3606C23.9649 25.9781 23.9915 25.4741 24.2485 25.1175Z" fill="#0F84B1"/>
<path d="M13.0473 29.3927C13.1621 29.3456 13.2863 29.3237 13.4105 29.3257C15.8244 29.3296 18.2376 29.3257 20.6514 29.327C21.2504 29.3622 21.7319 29.9492 21.6874 30.5416C21.6714 31.1186 21.1648 31.6412 20.5824 31.6459C18.1944 31.6479 15.8071 31.6472 13.4198 31.6466C12.858 31.6426 12.3626 31.1585 12.3168 30.604C12.255 30.0953 12.5705 29.576 13.0473 29.3927Z" fill="#0F84B1"/>
<path d="M24.7933 29.3841C25.0171 29.2958 25.2621 29.3323 25.4965 29.327C27.7776 29.3257 30.0586 29.3283 32.3397 29.3263C32.8145 29.3356 33.2382 29.7029 33.3663 30.1524C33.5901 30.8291 33.0542 31.6233 32.337 31.6452C29.9484 31.6492 27.5591 31.6446 25.1705 31.6472C24.5815 31.6579 24.0575 31.1372 24.0376 30.5535C23.9971 30.0522 24.3218 29.5548 24.7933 29.3841Z" fill="#0F84B1"/>
<path d="M28.3154 13.6505C28.5392 13.4194 28.9489 13.434 29.1581 13.6764C29.2915 13.8085 29.2969 14.0051 29.3254 14.1791C29.7318 14.3597 30.1376 14.6432 30.2956 15.0769C30.4231 15.4753 30.018 15.9016 29.6136 15.798C29.2809 15.7562 29.1999 15.3392 28.8865 15.2648C28.5856 15.1692 28.2344 15.3671 28.16 15.6739C28.065 15.9866 28.2901 16.3618 28.6222 16.3964C28.9004 16.4309 29.1899 16.4415 29.4469 16.5697C30.1415 16.8698 30.5785 17.6548 30.4663 18.4038C30.3872 19.0453 29.9211 19.5905 29.3287 19.8276C29.2969 19.9989 29.2902 20.1928 29.1594 20.3236C28.9409 20.5773 28.506 20.5773 28.2895 20.321C28.1567 20.1875 28.1527 19.9903 28.1241 19.8163C27.7157 19.641 27.3113 19.3554 27.1533 18.9238C27.0351 18.5519 27.379 18.1448 27.7635 18.1907C28.1606 18.1867 28.2463 18.7033 28.6202 18.7478C29.0053 18.8341 29.3892 18.4476 29.2989 18.0632C29.251 17.7749 28.9728 17.5744 28.6866 17.5857C28.0783 17.5737 27.4906 17.2291 27.1951 16.6965C26.8597 16.1188 26.8989 15.3505 27.2947 14.8112C27.4953 14.5171 27.7987 14.3165 28.1201 14.1744C28.1514 13.9905 28.1646 13.7819 28.3154 13.6505Z" fill="#4FBA6F"/>
<path d="M16.5712 18.3607C16.7777 18.1249 17.1768 18.1117 17.3999 18.3321C17.56 18.4703 17.5779 18.694 17.6191 18.8873C18.0354 19.052 18.4219 19.3601 18.5873 19.7864C18.7294 20.2035 18.2844 20.649 17.8674 20.5109C17.546 20.4425 17.4809 20.0268 17.1622 19.9544C16.8302 19.8475 16.449 20.1012 16.4191 20.4485C16.3686 20.7845 16.6608 21.1086 16.9995 21.0999C17.6496 21.1033 18.2851 21.4798 18.5707 22.0688C18.902 22.7063 18.7825 23.539 18.2844 24.0563C18.1005 24.2635 17.8541 24.3957 17.6084 24.5152C17.5759 24.6992 17.5573 24.909 17.4085 25.0418C17.1934 25.2563 16.8096 25.2603 16.5964 25.0411C16.4417 24.9083 16.4244 24.6952 16.3965 24.5072C15.9934 24.3273 15.595 24.0477 15.4303 23.622C15.2928 23.2123 15.7205 22.7714 16.1342 22.8956C16.4589 22.9547 16.5373 23.375 16.8634 23.4308C17.1941 23.5218 17.5566 23.2608 17.5812 22.9208C17.6191 22.6293 17.3979 22.3278 17.1037 22.2919C16.8202 22.2567 16.526 22.2488 16.267 22.116C15.5432 21.7985 15.1082 20.9538 15.2762 20.1809C15.3845 19.5786 15.8394 19.0865 16.3985 18.8601C16.4244 18.6861 16.437 18.4908 16.5712 18.3607Z" fill="#4FBA6F"/>
<path d="M4.84917 23.0489C5.06632 22.8012 5.49265 22.8046 5.70714 23.0529C5.84327 23.1844 5.84859 23.3823 5.87448 23.557C6.30015 23.7469 6.72515 24.053 6.87323 24.5139C6.97683 24.9103 6.57109 25.3121 6.17597 25.2085C5.8353 25.1587 5.76624 24.725 5.44284 24.646C5.14601 24.5497 4.79671 24.7377 4.71569 25.0391C4.61741 25.336 4.80866 25.6959 5.11679 25.7656C5.37976 25.8114 5.65534 25.8021 5.90503 25.9084C6.57706 26.1534 7.04987 26.8447 7.03327 27.5606C7.04124 28.2811 6.55116 28.9478 5.88444 29.2021C5.84859 29.3841 5.8373 29.5933 5.68921 29.7261C5.46343 29.9605 5.04441 29.9459 4.83655 29.6949C4.70839 29.5621 4.70374 29.3688 4.67452 29.1982C4.25417 29.0142 3.84577 28.7127 3.68374 28.2671C3.56089 27.8621 3.97792 27.4357 4.38632 27.5526C4.73097 27.6091 4.79538 28.0626 5.13937 28.1211C5.46476 28.208 5.82269 27.959 5.85589 27.625C5.90569 27.3049 5.64206 26.9782 5.31534 26.9736C4.88901 26.9576 4.45671 26.8328 4.13331 26.5432C3.57019 26.0764 3.36233 25.2397 3.64257 24.5637C3.81855 24.0922 4.21964 23.7416 4.67651 23.5503C4.70308 23.375 4.71105 23.1778 4.84917 23.0489Z" fill="#4FBA6F"/>
<path d="M24.8469 22.3324C25.0143 22.2766 25.1929 22.2746 25.3676 22.2759C27.65 22.2826 29.931 22.2793 32.2127 22.2766C32.748 22.254 33.2633 22.6452 33.3795 23.1684C33.5136 23.6764 33.254 24.2515 32.7845 24.4873C32.5487 24.6227 32.2705 24.6181 32.0082 24.6121C29.8619 24.6094 27.7157 24.6121 25.5701 24.6114C25.2799 24.6081 24.9705 24.648 24.7042 24.5065C24.2772 24.3119 24.0003 23.8398 24.0381 23.3723C24.06 22.9021 24.398 22.4705 24.8469 22.3324Z" fill="#109DD4"/>
<path d="M12.4475 27.5879C12.6414 27.2114 13.0544 26.9623 13.4787 26.967C14.5472 26.959 15.6164 26.9756 16.6848 26.9583C16.8947 26.959 17.1052 26.9577 17.3157 26.9577C18.3842 26.9769 19.4533 26.9583 20.5225 26.967C20.9455 26.963 21.3578 27.2107 21.5518 27.5859C21.7709 27.9883 21.7231 28.5169 21.4322 28.8708C21.2018 29.165 20.8246 29.3271 20.4527 29.3098C18.1511 29.3131 15.8494 29.3111 13.5485 29.3111C13.1753 29.3271 12.7981 29.1657 12.567 28.8702C12.2775 28.5162 12.229 27.989 12.4475 27.5879Z" fill="#109DD4"/>
<path d="M25.0971 26.9649C27.5137 26.9583 29.9302 26.9576 32.3467 26.9649C32.6774 27.0041 32.9955 27.1741 33.1901 27.4484C33.463 27.8156 33.4869 28.3462 33.2485 28.7373C33.0393 29.0986 32.625 29.3237 32.2079 29.3097C29.8817 29.3117 27.5555 29.3117 25.2293 29.3097C24.8103 29.321 24.3972 29.0893 24.192 28.724C23.9523 28.3209 23.9915 27.7751 24.287 27.4105C24.4809 27.1575 24.7837 27.0048 25.0971 26.9649Z" fill="#109DD4"/>
<path d="M1.06534 31.8817C1.30839 31.6937 1.62249 31.6433 1.92198 31.6526C4.20304 31.6592 6.48343 31.6539 8.76382 31.6546C9.41858 31.6227 10.0103 32.219 9.96378 32.8738C9.95515 33.4436 9.47901 33.9343 8.91987 34H1.64905C1.23866 33.9516 0.855498 33.6926 0.690147 33.3094C0.461045 32.8227 0.625069 32.1918 1.06534 31.8817Z" fill="#109DD4"/>
<path d="M12.9342 31.7906C13.16 31.6605 13.4282 31.6572 13.6819 31.6598C15.9822 31.6651 18.2825 31.6572 20.5822 31.6638C21.2031 31.6678 21.7277 32.2568 21.6885 32.8717C21.6805 33.4481 21.1938 33.9488 20.6234 34H13.3837C12.9063 33.9542 12.47 33.6049 12.3525 33.136C12.2024 32.6227 12.458 32.0324 12.9342 31.7906Z" fill="#109DD4"/>
<path d="M24.7193 31.7608C24.9205 31.6598 25.1496 31.6598 25.3694 31.6598C27.6724 31.6638 29.9747 31.6578 32.2776 31.6631C32.9337 31.6499 33.4896 32.2913 33.4072 32.9381C33.3687 33.4847 32.9032 33.9382 32.364 34H25.0925C24.6011 33.9449 24.1608 33.5703 24.0625 33.0809C23.937 32.5576 24.2252 31.9753 24.7193 31.7608Z" fill="#109DD4"/>
</g>
<defs>
<clipPath id="clip0_41_1038">
<rect width="34" height="34" fill="white"/>
</clipPath>
</defs>
</svg>
