<svg width="26" height="26" viewBox="0 0 26 26" fill="none" xmlns="http://www.w3.org/2000/svg">
<path d="M7.75156 11.0829C6.59867 11.0829 5.66406 12.0174 5.66406 13.1704C5.66406 14.3233 6.59867 15.2579 7.75156 15.2579C8.90446 15.2579 9.83906 14.3233 9.83906 13.1704C9.83906 12.0174 8.90446 11.0829 7.75156 11.0829Z" fill="#109DD4"/>
<path fill-rule="evenodd" clip-rule="evenodd" d="M7.75156 7.16881C4.43699 7.16881 1.75 9.8558 1.75 13.1704C1.75 16.4849 4.43699 19.1719 7.75156 19.1719C10.0275 19.1719 12.0061 17.9051 13.0233 16.0407H16.3625V18.3891C16.3625 18.8214 16.713 19.1719 17.1453 19.1719H20.7984C21.2308 19.1719 21.5812 18.8214 21.5812 18.3891V16.0407H23.4078C23.8401 16.0407 24.1906 15.6902 24.1906 15.2579V12.1266C24.1906 11.1178 23.3728 10.3001 22.3641 10.3001H13.0233C12.0061 8.43562 10.0275 7.16881 7.75156 7.16881ZM3.31562 13.1704C3.31562 10.7205 5.30166 8.73443 7.75156 8.73443C9.56937 8.73443 11.1335 9.82796 11.8187 11.3963C11.9433 11.6814 12.225 11.8657 12.5361 11.8657H22.3641C22.5082 11.8657 22.625 11.9825 22.625 12.1266V14.4751H20.7984C20.3661 14.4751 20.0156 14.8255 20.0156 15.2579V17.6063H17.9281V15.2579C17.9281 14.8255 17.5776 14.4751 17.1453 14.4751H12.5361C12.225 14.4751 11.9433 14.6594 11.8187 14.9444C11.1335 16.5128 9.56937 17.6063 7.75156 17.6063C5.30166 17.6063 3.31562 15.6203 3.31562 13.1704Z" fill="#109DD4"/>
</svg>
