<svg width="19" height="19" viewBox="0 0 19 19" fill="none" xmlns="http://www.w3.org/2000/svg">
<path fill-rule="evenodd" clip-rule="evenodd" d="M4.94824 4.35414C4.94824 2.93315 6.10017 1.78122 7.52116 1.78122C8.31694 1.78122 9.02833 2.14251 9.50033 2.71002C9.97232 2.14251 10.6837 1.78122 11.4795 1.78122C12.9005 1.78122 14.0524 2.93315 14.0524 4.35414C14.0524 4.86422 13.904 5.33964 13.6479 5.73955H14.2503C15.4527 5.73955 16.4274 6.71427 16.4274 7.91664V9.49997C16.4274 10.1366 15.998 10.6729 15.413 10.8351C15.5271 12.2812 15.461 13.7367 15.2158 15.1681C15.0693 16.0228 14.3751 16.6776 13.5133 16.7739L12.7893 16.8548C10.6034 17.0991 8.39722 17.0991 6.21133 16.8548L5.48738 16.7739C4.62555 16.6776 3.93136 16.0228 3.7849 15.1681C3.53962 13.7367 3.47356 12.2812 3.58761 10.8351C3.00264 10.6729 2.57324 10.1366 2.57324 9.49997V7.91664C2.57324 6.71427 3.54796 5.73955 4.75033 5.73955H5.35271C5.09668 5.33964 4.94824 4.86422 4.94824 4.35414ZM8.90658 4.35414C8.90658 3.58899 8.2863 2.96872 7.52116 2.96872C6.75601 2.96872 6.13574 3.58899 6.13574 4.35414C6.13574 5.11928 6.75601 5.73955 7.52116 5.73955C8.2863 5.73955 8.90658 5.11928 8.90658 4.35414ZM11.4795 5.73955C12.2446 5.73955 12.8649 5.11928 12.8649 4.35414C12.8649 3.58899 12.2446 2.96872 11.4795 2.96872C10.7143 2.96872 10.0941 3.58899 10.0941 4.35414C10.0941 5.11928 10.7143 5.73955 11.4795 5.73955ZM3.76074 7.91664C3.76074 7.3701 4.20379 6.92705 4.75033 6.92705H8.90658V9.69789H3.95866C3.84935 9.69789 3.76074 9.6093 3.76074 9.49997V7.91664ZM10.0941 10.8854H14.2258C14.3369 12.2475 14.2764 13.619 14.0453 14.9675C13.9882 15.3008 13.7175 15.5562 13.3814 15.5937L12.6574 15.6747C11.8053 15.7699 10.95 15.8265 10.0941 15.8444V10.8854ZM10.0941 9.69789H15.042C15.1513 9.69789 15.2399 9.6093 15.2399 9.49997V7.91664C15.2399 7.3701 14.7969 6.92705 14.2503 6.92705H10.0941V9.69789ZM8.90658 10.8854V15.8444C8.05063 15.8265 7.19532 15.7699 6.34323 15.6747L5.61927 15.5937C5.28318 15.5562 5.01246 15.3008 4.95534 14.9675C4.72426 13.619 4.66383 12.2475 4.77489 10.8854H8.90658Z" fill="#109DD4"/>
</svg>
