<svg width="26" height="27" viewBox="0 0 26 27" fill="none" xmlns="http://www.w3.org/2000/svg">
<path fill-rule="evenodd" clip-rule="evenodd" d="M13.3174 4.84815C9.90898 4.84815 7.26476 6.98278 6.81348 9.58005H9.11127C9.54682 9.58005 9.89992 9.93315 9.89992 10.3687V17.7294C9.89992 18.165 9.54682 18.5181 9.11127 18.5181H5.95666C4.35961 18.5181 3.06494 17.2234 3.06494 15.6264V12.4718C3.06494 11.1346 3.97253 10.0094 5.20531 9.67862C5.60643 5.99389 9.18887 3.27084 13.3174 3.27084C17.4459 3.27084 21.0284 5.99389 21.4295 9.67863C22.6623 10.0094 23.5699 11.1346 23.5699 12.4718V15.6264C23.5699 16.9673 22.6572 18.0951 21.4192 18.4223C21.0818 20.8529 18.9955 22.7242 16.472 22.7242H15.2676C14.9556 23.495 14.2 24.0387 13.3174 24.0387C12.1559 24.0387 11.2143 23.0971 11.2143 21.9356C11.2143 20.7741 12.1559 19.8325 13.3174 19.8325C14.2 19.8325 14.9556 20.3762 15.2676 21.1469H16.472C18.088 21.1469 19.4421 20.0254 19.7981 18.5181H17.5235C17.088 18.5181 16.7349 18.165 16.7349 17.7294V10.3687C16.7349 9.93315 17.088 9.58005 17.5235 9.58005H19.8214C19.37 6.98278 16.7258 4.84815 13.3174 4.84815ZM5.95666 11.1574C5.23072 11.1574 4.64224 11.7458 4.64224 12.4718V15.6264C4.64224 16.3524 5.23072 16.9408 5.95666 16.9408H8.32261V11.1574H5.95666ZM21.9926 12.4718C21.9926 11.7458 21.4041 11.1574 20.6781 11.1574H18.3122V16.9408H20.6781C21.4041 16.9408 21.9926 16.3524 21.9926 15.6264V12.4718Z" fill="#109DD4"/>
</svg>
