<svg width="18" height="22" viewBox="0 0 18 22" fill="none" xmlns="http://www.w3.org/2000/svg">
<path fill-rule="evenodd" clip-rule="evenodd" d="M3.70557 5.93154V5.80267C3.70557 3.47226 5.28331 1.43748 7.54035 0.857121C8.37458 0.642597 9.24945 0.642597 10.0837 0.857121C12.3407 1.43748 13.9185 3.47226 13.9185 5.80268V5.93154H15.5322C16.1464 5.93154 16.6676 6.38196 16.7567 6.98963L16.9917 8.59408C17.4546 11.753 17.4546 14.9626 16.9917 18.1215C16.7682 19.647 15.538 20.8265 14.0045 20.9855L13.3284 21.0555C10.3256 21.367 7.29846 21.367 4.29563 21.0555L3.61956 20.9855C2.08597 20.8265 0.855815 19.647 0.632293 18.1215C0.169444 14.9626 0.169444 11.753 0.632293 8.59408L0.867382 6.98963C0.956417 6.38196 1.47764 5.93154 2.09179 5.93154H3.70557ZM7.94188 2.41887C8.51272 2.27209 9.1113 2.27209 9.68215 2.41887C11.2263 2.81597 12.3059 4.20818 12.3059 5.80268V5.93154H5.31813V5.80267C5.31813 4.20818 6.39763 2.81597 7.94188 2.41887ZM3.70557 7.5441V9.96295C3.70557 10.4082 4.06656 10.7692 4.51185 10.7692C4.95714 10.7692 5.31813 10.4082 5.31813 9.96295V7.5441H12.3059V9.96295C12.3059 10.4082 12.6669 10.7692 13.1122 10.7692C13.5575 10.7692 13.9185 10.4082 13.9185 9.96295V7.5441H15.2081L15.3962 8.82785C15.8363 11.8318 15.8363 14.8838 15.3962 17.8878C15.2796 18.6835 14.638 19.2986 13.8382 19.3815L13.1621 19.4517C10.2698 19.7516 7.35426 19.7516 4.46196 19.4517L3.78589 19.3815C2.98602 19.2986 2.3444 18.6835 2.22783 17.8878C1.78768 14.8838 1.78768 11.8318 2.22783 8.82785L2.41592 7.5441H3.70557Z" fill="white"/>
</svg>
