<svg width="26" height="26" viewBox="0 0 26 26" fill="none" xmlns="http://www.w3.org/2000/svg">
<path fill-rule="evenodd" clip-rule="evenodd" d="M13.2335 6.35924C12.8184 6.10925 12.2991 6.10925 11.8839 6.35924L11.3435 6.68461C9.89795 7.55506 8.27511 8.08919 6.59515 8.24746L6.25472 8.27954C6.12032 8.2922 6.01762 8.40503 6.01762 8.54003V10.2605C6.01762 12.8848 7.08306 15.3967 8.96988 17.2208L12.3768 20.5143C12.4782 20.6123 12.6392 20.6123 12.7406 20.5143L16.1475 17.2208C18.0344 15.3967 19.0998 12.8848 19.0998 10.2605V8.54003C19.0998 8.40503 18.9971 8.2922 18.8628 8.27954L18.5223 8.24746C16.8423 8.08919 15.2194 7.55506 13.7739 6.68461L13.2335 6.35924ZM11.074 5.01437C11.9874 4.46439 13.13 4.46439 14.0434 5.01437L14.5837 5.33974C15.8276 6.08872 17.2239 6.54834 18.6696 6.68453L19.0099 6.71659C19.9508 6.80523 20.6697 7.59507 20.6697 8.54003V10.2605C20.6697 13.3103 19.4315 16.2295 17.2387 18.3494L13.8317 21.643C13.1218 22.3293 11.9957 22.3293 11.2858 21.643L7.87876 18.3494C5.68597 16.2295 4.44775 13.3103 4.44775 10.2605V8.54003C4.44775 7.59507 5.16668 6.80523 6.10746 6.71659L6.44789 6.68453C7.89344 6.54834 9.28985 6.08873 10.5337 5.33974L11.074 5.01437Z" fill="#109DD4"/>
</svg>
