<svg width="192" height="58" viewBox="0 0 192 58" fill="none" xmlns="http://www.w3.org/2000/svg">
<path d="M11.7446 7.24792e-05H16.3511C17.2928 0.581666 18.4146 0.702765 19.4121 1.15211C20.827 1.76238 22.1161 2.64035 23.2076 3.72864C25.0719 5.42403 26.5234 7.65002 26.9887 10.1533C27.403 11.6941 27.4014 13.3114 27.3042 14.892C27.027 15.2346 26.5505 15.2107 26.1538 15.2187C23.915 15.198 21.6779 15.2346 19.4408 15.2267C18.2967 15.2107 17.1622 15.4322 16.0181 15.3302C15.8285 14.2627 16.0484 13.0294 15.2421 12.1657C14.5777 11.1428 13.0799 11.1906 12.1748 11.8486C10.2771 13.1839 9.03422 15.633 9.60784 17.9594C9.97433 19.1401 10.8411 20.1296 11.8753 20.7845C12.7373 21.2848 13.6567 21.6736 14.5426 22.1245C12.0617 22.5739 9.52339 22.1181 7.04087 22.4942C6.06251 21.2481 5.31521 19.7806 5.04751 18.2127C5.0029 17.0862 4.94554 15.9437 5.09691 14.8219C5.47933 13.3799 6.06889 11.9745 6.92295 10.7444C8.46696 8.60925 10.8634 6.97601 13.5404 6.7832C15.6437 6.63342 17.6992 7.74721 18.942 9.40914C19.3117 9.89513 19.659 10.464 20.2486 10.7046C20.9545 10.8241 21.6683 10.6807 22.3662 10.5723C22.2675 10.0338 22.1081 9.50156 21.8054 9.04106C20.8621 7.44606 19.4057 6.16974 17.7374 5.37782C16.0962 4.69584 14.2494 4.28156 12.4855 4.70859C11.4355 4.94919 10.3583 5.19458 9.4246 5.75546C8.39048 6.39123 7.54438 7.27079 6.69191 8.12326C5.44905 9.34221 4.47229 10.8336 3.86839 12.4669C3.47004 13.6619 3.07169 14.8889 3.10356 16.1636C3.11949 17.1451 2.99361 18.1697 3.37125 19.105C3.64532 19.7695 3.87636 20.4546 3.96081 21.1717C2.92988 20.5805 2.38334 19.5034 1.92603 18.4565C0.1207 14.6913 0.337404 10.0401 2.4646 6.45178C4.22213 3.72864 6.87196 1.45645 10.0588 0.650182C10.6467 0.506776 11.1933 0.245457 11.7446 7.24792e-05Z" fill="#129DD4"/>
<path d="M85.4381 23.7897C87.1415 22.8544 89.1396 22.4401 91.074 22.5994C91.0931 24.2231 91.0326 25.8468 91.0883 27.4705C90.1275 27.6378 89.0185 27.6441 88.2632 28.3468C87.8681 28.8997 87.5988 29.5849 87.5573 30.2637C88.0035 30.9712 88.9086 30.5362 89.5842 30.6987C90.3952 32.0786 90.4605 33.7469 91.0023 35.2351C90.0829 35.5729 89.1029 35.4072 88.1517 35.4502C87.8537 35.4295 87.5207 35.6877 87.5542 36.0016C87.5303 36.5943 87.7183 37.1695 87.7087 37.7623C87.7119 40.9969 87.6912 44.2331 87.7199 47.4677C87.7725 47.8549 87.2912 48.0445 86.9726 48.0445C85.4222 48.0636 83.8734 48.0238 82.3246 48.0605C82.2386 47.6095 82.143 47.1554 82.1557 46.6949C82.1621 44.1423 82.1589 41.5896 82.1589 39.0386C82.1621 38.1829 82.1111 37.3225 82.2577 36.4764C82.323 36.1242 82.2816 35.7116 81.9836 35.4757C81.5964 35.42 81.1965 35.4853 80.8204 35.3817C80.3504 35.216 80.2946 34.6408 80.1448 34.2345C79.858 33.0792 79.431 31.9416 79.3848 30.7433C80.2309 30.6174 81.0881 30.7274 81.9358 30.6461C82.3389 30.4135 82.2832 29.8956 82.2959 29.4989C82.2162 27.2251 83.4209 24.8971 85.4381 23.7897Z" fill="#129DD4"/>
<path d="M74.8027 23.0376C76.1428 22.5022 77.6517 23.4519 78.2811 24.6358C78.6077 25.5026 78.5966 26.5845 78.0118 27.3462C77.494 28.1747 76.5236 28.7324 75.5325 28.6209C74.2179 28.7659 73.2603 27.582 72.8093 26.4873C72.4046 25.0453 73.4069 23.4742 74.8027 23.0376Z" fill="#129DD4"/>
<path d="M94.0689 23.0009C95.3739 22.5516 96.8351 23.4614 97.388 24.6501C97.5155 25.3751 97.4788 26.1288 97.4199 26.8602C97.1346 27.6473 96.4272 28.2416 95.6687 28.5603C95.0999 28.64 94.5135 28.648 93.9446 28.5651C93.046 28.2369 92.3018 27.4625 92.0437 26.5367C91.9784 25.8706 91.9035 25.1361 92.2508 24.529C92.6285 23.8104 93.3136 23.2782 94.0689 23.0009Z" fill="#129DD4"/>
<path d="M152.549 22.9962C153.333 22.6727 154.17 23.044 154.834 23.4678C155.462 23.8391 155.784 24.5402 156.012 25.2047C156.259 26.0555 155.897 26.9271 155.422 27.6266C154.337 29.0432 151.808 28.9922 150.878 27.4275C150.22 26.5591 150.159 25.3098 150.731 24.3841C151.102 23.683 151.821 23.2511 152.549 22.9962Z" fill="#129DD4"/>
<path d="M156.875 24.0271C158.432 23.7897 160.004 23.8343 161.574 23.8487C162.011 23.8534 162.554 24.051 162.562 24.5689C162.602 28.6974 162.524 32.8323 162.602 36.9608C163.376 36.4174 163.792 35.5458 164.428 34.8687C165.519 33.6672 166.547 32.41 167.581 31.1576C167.994 30.5983 168.733 30.5139 169.378 30.5457C171.009 30.5617 172.64 30.5441 174.27 30.5537C174.082 31.6404 173.126 32.2618 172.471 33.0601C171.251 34.4432 170.186 35.9585 168.886 37.2715C168.542 37.6189 168.034 38.1463 168.459 38.6323C170.097 40.6304 171.557 42.7656 173.14 44.8083C173.732 45.6082 174.275 46.4479 174.976 47.1586C175.266 47.4183 175.327 47.8135 175.398 48.1768C173.548 48.1911 171.697 48.1672 169.847 48.1879C169.241 48.2517 168.607 48.0302 168.261 47.5139C166.929 45.758 165.639 43.9734 164.295 42.2286C163.66 41.5116 163.359 40.4806 162.447 40.0393C162.477 42.5935 162.369 45.1557 162.519 47.7067C162.385 48.0748 161.937 48.1911 161.585 48.1832C160.251 48.1784 158.918 48.1863 157.584 48.1784C157.267 48.1991 156.861 47.9872 156.888 47.6271C156.894 39.7604 156.891 31.8938 156.875 24.0271Z" fill="#129DD4"/>
<path d="M62.1928 24.2247C63.34 23.7595 64.6068 24.0702 65.8082 23.9905C66.4153 24.0526 67.2152 23.7579 67.6183 24.3729C67.6709 26.3264 67.6151 28.2863 67.6311 30.2414C67.5849 30.4581 67.7442 30.6334 67.9577 30.6493C69.0588 30.7832 70.214 30.4709 71.2704 30.9059C70.7749 31.9448 70.6426 33.0968 70.3192 34.1915C70.1981 34.5691 70.1518 35.0105 69.8555 35.3005C69.1353 35.4455 68.2286 35.028 67.6534 35.6096C67.5928 37.4978 67.6661 39.3924 67.6279 41.2837C67.5004 42.517 68.8437 43.3504 69.9383 43.4077C70.5534 43.4954 71.237 43.0588 71.7915 43.4524C71.8345 43.975 71.5668 44.4451 71.4314 44.9342C71.1716 45.8138 70.8482 46.6774 70.6904 47.5857C70.6092 48.1019 70.2953 48.5943 69.8125 48.8174C68.917 48.8779 67.9768 48.9114 67.1276 48.5736C66.4105 48.2947 65.6983 47.9968 65.0163 47.6414C63.1281 46.4958 62.1641 44.2284 62.2135 42.0725C62.2406 39.9532 62.1753 37.8324 62.2533 35.7132C61.1364 35.1953 59.8664 35.5491 58.6809 35.4519C58.6554 34.5643 59.0346 33.7485 59.2195 32.8976C59.3916 32.1296 59.6449 31.3823 59.9732 30.6669C60.7284 30.6764 61.4965 30.729 62.2358 30.5282C62.1848 28.4281 62.2581 26.3248 62.1928 24.2247Z" fill="#129DD4"/>
<path d="M98.3966 24.1514C100.205 24.0638 102.02 24.1371 103.832 24.1164C103.809 28.0314 103.824 31.9464 103.825 35.8614C103.825 36.231 103.747 36.5927 103.661 36.9513C104.51 36.9783 104.883 36.137 105.371 35.5953C106.732 33.9987 107.971 32.281 109.507 30.8453C111.493 30.7386 113.493 30.8262 115.484 30.8055C115.371 31.1258 115.309 31.4859 115.059 31.7344C114.398 32.4467 113.757 33.1797 113.129 33.9238C112.13 35.0073 111.295 36.231 110.269 37.2922C110.005 37.5838 109.692 37.8595 109.554 38.2387C109.96 38.9494 110.62 39.4704 111.078 40.146C112.246 41.8032 113.472 43.4205 114.689 45.0442C115.177 45.7883 115.696 46.5165 116.332 47.1443C116.612 47.361 116.585 47.7354 116.635 48.0509C114.672 48.0541 112.707 48.0382 110.744 48.0493C110.303 48.0924 109.899 47.8502 109.659 47.4948C108.336 45.6353 106.944 43.8268 105.572 42.0039C105.071 41.3347 104.703 40.5539 104.055 40.009C103.867 40.0982 103.784 40.2464 103.806 40.452C103.833 42.9823 103.819 45.5142 103.822 48.0461C102.168 48.0334 100.514 48.07 98.8603 48.0334C98.5973 48.0844 98.4762 47.8565 98.4029 47.6478C98.3233 46.9515 98.5543 46.2695 98.5352 45.5732C98.524 41.0575 98.5336 36.5402 98.532 32.0228C98.4826 31.2835 98.3376 30.5505 98.3743 29.8064C98.4093 28.6847 98.293 27.5533 98.4778 26.4411C98.6467 25.6763 98.2468 24.9226 98.3966 24.1514Z" fill="#129DD4"/>
<path d="M122.509 30.1235C123.446 29.8271 124.436 29.9131 125.403 29.9052C126.169 29.8956 126.928 30.0773 127.638 30.3609C128.717 30.7433 129.804 31.1624 130.739 31.8364C132.253 32.955 133.469 34.4814 134.184 36.2246C134.627 37.2078 134.524 38.3136 134.696 39.3557C134.728 42.0629 134.673 44.7733 134.692 47.482C134.672 47.9967 134.183 48.3202 133.7 48.3202C132.736 48.3345 131.772 48.3218 130.808 48.3186C130.139 48.3154 129.552 47.9489 128.908 47.8469C128.101 47.8677 127.444 48.4365 126.674 48.6245C125.758 48.8508 124.796 49.0898 123.856 48.8588C122.675 48.7329 121.609 48.1863 120.503 47.8007C118.193 46.7937 116.26 44.8959 115.291 42.5616C114.501 40.7515 114.474 38.6673 115.011 36.7855C115.803 34.3858 117.536 32.2746 119.813 31.1464C120.672 30.7083 121.596 30.423 122.509 30.1235ZM124.187 34.9722C123.395 35.0057 122.685 35.4152 122.034 35.8327C120.913 36.5879 120.242 37.8834 120.062 39.1995C120.135 40.4408 120.709 41.6518 121.654 42.4724C122.366 43.2292 123.402 43.5177 124.386 43.7248C124.938 43.8172 125.475 43.6164 125.994 43.4603C127.403 43.0795 128.51 41.9083 129.018 40.5667C129.337 39.9197 129.439 39.1485 129.173 38.4666C128.934 37.8372 128.703 37.1807 128.257 36.6644C127.278 35.4917 125.725 34.7699 124.187 34.9722Z" fill="#129DD4"/>
<path d="M141.871 30.031C143.004 30.0756 144.199 29.851 145.271 30.3194C146.412 30.7592 147.556 31.2611 148.519 32.0308C148.817 32.206 148.857 32.6713 148.595 32.8944C147.916 33.5493 147.239 34.2042 146.595 34.8941C146.377 35.0853 146.157 35.4199 145.824 35.2781C145.104 35.055 144.492 34.4942 143.711 34.4814C143.171 34.4655 142.623 34.4416 142.089 34.5292C141.522 34.781 141.207 35.4311 141.471 36.0127C141.978 36.5465 142.7 36.8301 143.412 36.9671C144.366 37.1328 145.284 37.4531 146.226 37.6794C147.596 38.1781 148.892 39.174 149.354 40.6097C149.758 41.5211 149.728 42.5361 149.672 43.5113C149.309 45.4233 148.001 47.1713 146.173 47.9027C145.241 48.2739 144.336 48.8332 143.303 48.838C142.091 48.8476 140.843 48.9256 139.686 48.4922C138.324 47.9823 136.909 47.4502 135.821 46.4527C135.593 46.2949 135.642 45.9683 135.786 45.7707C136.214 45.1413 136.764 44.6043 137.186 43.9686C137.483 43.5686 137.712 43.1113 138.085 42.7751C138.483 42.6843 138.777 43.0141 139.078 43.2133C140.101 44.0339 141.473 44.3255 142.76 44.2028C143.449 44.0849 144.167 43.8108 144.608 43.2436C144.648 42.8962 144.701 42.4437 144.33 42.2604C143.152 41.4366 141.642 41.494 140.335 40.9953C138.934 40.573 137.488 39.8353 136.815 38.4649C136.216 37.5169 136.316 36.3585 136.312 35.2877C136.224 33.3119 137.682 31.548 139.409 30.7592C140.206 30.4533 140.999 30.0374 141.871 30.031Z" fill="#129DD4"/>
<path d="M55.0177 30.0741C55.7459 29.9896 56.482 30.0215 57.2134 30.031C57.5974 29.9896 57.9878 30.3497 57.9288 30.7433C57.9002 32.1598 57.9543 33.5796 57.8683 34.9945C57.1576 34.9929 56.439 34.9021 55.7347 35.0168C54.9269 35.4407 54.3261 36.3425 54.4058 37.2747C54.4281 40.7658 54.366 44.2586 54.4393 47.7497C54.1079 47.9011 53.7701 48.0764 53.3956 48.0493C52.2165 48.0461 51.039 48.0461 49.8614 48.0493C49.4854 48.0748 49.1492 47.9011 48.8193 47.7513C48.9102 45.3787 48.7986 43.003 48.8751 40.6304C49.1651 39.0258 48.8767 37.3926 49.0297 35.7785C49.283 34.483 49.7818 33.1908 50.7139 32.2284C51.7767 30.9313 53.453 30.4437 55.0177 30.0741Z" fill="#129DD4"/>
<path d="M34.3094 31.0078C35.3053 30.5856 36.3315 30.0821 37.4421 30.1538C38.5192 30.1697 39.6043 30.0948 40.6767 30.2143C42.1426 30.6844 43.6548 31.2261 44.8052 32.2921C45.7597 33.1494 46.6743 34.1118 47.1762 35.3116C47.3865 35.8502 47.7434 36.3585 47.7434 36.9576C47.761 37.8913 47.7721 38.8267 47.7562 39.762C47.0726 39.8082 46.397 39.9452 45.7103 39.9341C42.6907 39.9309 39.6697 39.9309 36.6501 39.9325C35.9475 39.9245 35.2256 40.0122 34.5469 39.7811C34.4799 40.1301 34.2425 40.5077 34.4401 40.8519C34.9325 41.8255 35.6606 42.7289 36.6422 43.2388C37.2572 43.5033 37.901 43.7184 38.5622 43.83C39.4657 43.677 40.3516 43.3599 41.1053 42.8325C41.3969 42.627 41.8956 42.3895 42.1474 42.7751C43.0461 43.9128 43.7775 45.1828 44.7606 46.2599C43.6261 47.4247 42.0486 47.9362 40.5636 48.4827C39.4768 48.6357 38.3678 48.5321 37.2732 48.556C36.5848 48.5974 35.9745 48.2453 35.3436 48.0302C33.0618 47.3084 31.1768 45.5763 30.0407 43.4938C29.6758 42.705 29.236 41.9051 29.2233 41.0128C29.193 40.1938 29.2185 39.3716 29.2105 38.5526C29.2137 37.8834 29.1707 37.1918 29.4145 36.5545C29.7603 35.6478 30.1475 34.7396 30.7482 33.9716C31.717 32.7574 32.861 31.6245 34.3094 31.0078ZM35.8566 35.8279C35.7499 36.0701 35.7435 36.3426 35.6861 36.5991C37.5918 36.3314 39.5326 36.3314 41.4383 36.5991C41.3794 36.3426 41.3714 36.0717 41.2678 35.8279C40.7723 35.4981 40.2194 35.2527 39.6505 35.0742C38.3471 34.7364 36.9529 35.0726 35.8566 35.8279Z" fill="#129DD4"/>
<path d="M72.9076 31.3839C72.8742 30.9345 73.3601 30.6445 73.7649 30.6764C75.2802 30.6796 76.7987 30.6493 78.3156 30.7035C78.2917 31.5209 78.4112 32.3288 78.4591 33.1414C78.4606 37.8722 78.4559 42.6031 78.4622 47.3339C78.4941 47.7418 78.1977 48.1832 77.7611 48.1832C76.4816 48.1991 75.2021 48.1895 73.9242 48.1879C73.4749 48.1784 72.8566 47.8533 72.9028 47.3403C72.922 42.0215 72.9092 36.7027 72.9076 31.3839Z" fill="#129DD4"/>
<path d="M95.6088 30.7449C96.2143 30.6573 96.8294 30.662 97.4412 30.6748C97.4603 36.5035 97.4731 42.3337 97.4348 48.1608C95.9705 48.215 94.5046 48.1799 93.0386 48.1911C92.5208 48.2134 91.8914 47.7418 92.0316 47.1761C92.2483 46.0687 92.1527 44.939 92.1702 43.8188C92.1639 40.154 92.1814 36.4875 92.1623 32.8227C92.1686 32.1662 91.6795 31.2357 92.4427 30.8341C93.4928 30.7194 94.5587 30.8931 95.6088 30.7449Z" fill="#129DD4"/>
<path d="M175.456 30.7242C176.928 30.6031 178.425 30.7099 179.907 30.6732C180.359 30.6175 180.675 31.121 180.617 31.5353C180.603 34.7301 180.62 37.9264 180.604 41.1212C180.574 41.8574 180.788 42.6573 181.328 43.1799C181.843 43.4858 182.432 43.8125 183.054 43.7296C183.654 43.5496 184.276 43.2612 184.633 42.7162C184.985 42.1984 184.905 41.5419 184.927 40.9491C184.91 37.7575 184.934 34.5659 184.913 31.3743C184.84 30.9728 185.286 30.6908 185.643 30.6812C186.811 30.6541 187.98 30.6908 189.15 30.6685C189.529 30.6844 189.977 30.6047 190.272 30.9123C190.394 31.1529 190.339 31.4365 190.359 31.6978C190.323 35.2607 190.378 38.8251 190.329 42.388C190.165 44.0945 189.438 45.809 188.087 46.9117C187.09 47.7769 185.804 48.1529 184.594 48.6134C183.853 48.8954 183.052 48.8429 182.276 48.8381C181.156 48.8636 180.157 48.2836 179.139 47.8996C177.658 47.3355 176.423 46.1643 175.843 44.6825C175.56 43.889 175.176 43.0938 175.195 42.2302C175.193 38.6706 175.203 35.1109 175.19 31.5512C175.185 31.2532 175.204 30.9282 175.456 30.7242Z" fill="#129DD4"/>
<path d="M150.637 31.2086C150.579 30.8788 150.942 30.7736 151.197 30.8039C152.778 30.7927 154.36 30.7975 155.941 30.8102C155.949 36.5449 155.915 42.2828 155.958 48.0174C155.015 48.0796 154.07 48.0477 153.127 48.0557C152.292 48.0445 151.452 48.1067 150.627 47.9617C150.66 42.3768 150.633 36.7919 150.637 31.2086Z" fill="#129DD4"/>
<path d="M7.03967 22.4942C9.5222 22.1182 12.0605 22.5739 14.5414 22.1245C16.4392 22.6281 18.2907 23.5156 19.6324 24.9831C20.9915 26.2594 21.9077 27.9819 22.2201 29.8191C22.2997 30.7162 22.2535 31.6181 22.2615 32.5183C22.2918 33.5126 21.9348 34.4591 21.5763 35.3689C20.6378 37.6332 18.8675 39.5548 16.6543 40.6192C15.8209 40.9841 14.9605 41.384 14.0299 41.3649C13.2874 41.3617 12.5178 41.4366 11.8024 41.1928C10.4719 40.7164 9.22901 39.907 8.41 38.7374C8.06742 38.3247 7.8061 37.767 7.28027 37.5631C6.49791 37.4675 5.7044 37.5392 4.91885 37.5551C5.65341 40.1523 7.81885 42.1919 10.2982 43.1511C12.0143 43.6833 13.8722 43.7152 15.6313 43.3726C17.0415 43.081 18.3258 42.3305 19.3918 41.3745C20.2825 40.5842 21.1748 39.7715 21.8456 38.7772C22.6758 37.5439 23.439 36.2357 23.8294 34.7905C24.3026 33.2832 24.3951 31.685 24.2596 30.1187C24.0971 29.0367 23.4534 28.0743 23.4629 26.9557C23.9871 27.4449 24.5241 27.9468 24.8524 28.5954C25.4292 29.6964 25.9996 30.8229 26.2721 32.0451C27.1134 35.1172 26.6513 38.484 25.1663 41.2837C23.6525 43.9909 21.1827 46.1563 18.2875 47.2749C16.9443 47.8134 15.4991 48.0317 14.0682 48.1767C13.0707 48.2755 12.0764 48.0987 11.0885 47.9839C9.14775 47.7274 7.3456 46.8462 5.74423 45.7516C3.98352 44.5565 2.53989 42.9312 1.47071 41.0988C0.780769 39.907 0.702692 38.4793 0 37.2922V33.0856C2.97489 33.0298 5.95137 33.076 8.92626 33.0585C9.74209 33.0553 10.5499 32.88 11.3674 32.9533C11.4502 34.1946 11.514 35.6637 12.5688 36.5098C13.1201 37.0516 13.9933 36.9735 14.6338 36.6437C16.0408 35.9537 17.0558 34.6216 17.5896 33.1716C17.8716 32.453 17.7936 31.6675 17.7952 30.9138C17.8111 30.0055 17.3315 29.1674 16.7435 28.5061C15.6759 27.4067 14.2562 26.7279 12.8158 26.2562C10.6248 25.5089 8.43549 24.4095 7.03967 22.4942Z" fill="#53B966"/>
</svg>
