<svg width="103" height="32" viewBox="0 0 103 32" fill="none" xmlns="http://www.w3.org/2000/svg">
<g clip-path="url(#clip0_1_54)">
<path d="M6.54665 0.211243H9.01339C9.51766 0.522678 10.1183 0.587525 10.6525 0.82814C11.4102 1.15493 12.1004 1.62507 12.6849 2.20784C13.6832 3.1157 14.4605 4.30768 14.7097 5.64813C14.9315 6.47322 14.9307 7.33927 14.8786 8.18569C14.7301 8.36914 14.475 8.35634 14.2626 8.36061C13.0638 8.34951 11.8658 8.36914 10.6678 8.36487C10.0552 8.35634 9.44769 8.47494 8.83506 8.42033C8.73352 7.84866 8.85127 7.18825 8.41953 6.72579C8.06372 6.178 7.26167 6.2036 6.77703 6.55599C5.76081 7.27101 5.09528 8.58245 5.40245 9.82819C5.59869 10.4604 6.06286 10.9903 6.61662 11.341C7.07822 11.6089 7.57055 11.8171 8.04495 12.0586C6.71645 12.2992 5.35722 12.0552 4.02787 12.2565C3.50397 11.5893 3.1038 10.8035 2.96045 9.96386C2.93656 9.36061 2.90585 8.74883 2.9869 8.14815C3.19168 7.37596 3.50738 6.6234 3.96473 5.96469C4.79152 4.82134 6.07481 3.94676 7.50826 3.84352C8.63455 3.76331 9.73524 4.35973 10.4008 5.24967C10.5987 5.50991 10.7847 5.81452 11.1004 5.94336C11.4784 6.00735 11.8607 5.93056 12.2344 5.87254C12.1815 5.58414 12.0962 5.29916 11.9341 5.05257C11.4289 4.19847 10.6491 3.51502 9.75571 3.09095C8.87687 2.72576 7.88796 2.50392 6.94341 2.73259C6.38112 2.86143 5.80433 2.99283 5.30432 3.29317C4.75057 3.63362 4.29749 4.10461 3.841 4.5611C3.17547 5.21383 2.65243 6.01247 2.32905 6.88705C2.11574 7.52698 1.90243 8.18399 1.91949 8.86658C1.92802 9.39218 1.86062 9.94082 2.06284 10.4417C2.2096 10.7975 2.33332 11.1644 2.37854 11.5483C1.82649 11.2318 1.53382 10.655 1.28894 10.0944C0.322213 8.07818 0.438254 5.58755 1.57734 3.66604C2.51847 2.20784 3.93742 0.991111 5.64392 0.559368C5.95876 0.482575 6.25143 0.342643 6.54665 0.211243Z" fill="white"/>
<path d="M46.0085 12.9502C46.9206 12.4494 47.9906 12.2275 49.0264 12.3129C49.0367 13.1823 49.0042 14.0518 49.0341 14.9212C48.5196 15.0108 47.9257 15.0142 47.5213 15.3905C47.3097 15.6866 47.1655 16.0535 47.1433 16.417C47.3822 16.7958 47.8669 16.5629 48.2286 16.6499C48.6629 17.3888 48.6979 18.2822 48.988 19.0791C48.4957 19.26 47.9709 19.1713 47.4616 19.1943C47.302 19.1832 47.1237 19.3214 47.1416 19.4895C47.1288 19.8069 47.2295 20.115 47.2244 20.4324C47.2261 22.1645 47.215 23.8974 47.2303 25.6295C47.2585 25.8368 47.0008 25.9384 46.8302 25.9384C46 25.9486 45.1706 25.9273 44.3412 25.9469C44.2952 25.7054 44.244 25.4623 44.2508 25.2157C44.2542 23.8488 44.2525 22.4819 44.2525 21.1158C44.2542 20.6576 44.2269 20.1969 44.3054 19.7438C44.3404 19.5552 44.3182 19.3342 44.1586 19.208C43.9513 19.1781 43.7371 19.2131 43.5358 19.1576C43.2841 19.0689 43.2542 18.7609 43.174 18.5433C43.0204 17.9247 42.7917 17.3155 42.767 16.6738C43.2201 16.6064 43.6791 16.6653 44.133 16.6218C44.3489 16.4972 44.3191 16.2199 44.3259 16.0074C44.2832 14.7898 44.9283 13.5432 46.0085 12.9502Z" fill="white"/>
<path d="M40.3131 12.5475C41.0306 12.2608 41.8387 12.7694 42.1757 13.4033C42.3506 13.8675 42.3446 14.4468 42.0315 14.8547C41.7542 15.2984 41.2346 15.597 40.7039 15.5373C39.9999 15.6149 39.4871 14.981 39.2457 14.3948C39.0289 13.6226 39.5656 12.7813 40.3131 12.5475Z" fill="white"/>
<path d="M50.6305 12.5279C51.3293 12.2873 52.1118 12.7745 52.4078 13.411C52.4761 13.7992 52.4565 14.2028 52.4249 14.5945C52.2722 15.016 51.8933 15.3342 51.4872 15.5049C51.1826 15.5475 50.8686 15.5518 50.564 15.5074C50.0827 15.3317 49.6843 14.917 49.5461 14.4213C49.5111 14.0646 49.471 13.6713 49.657 13.3462C49.8592 12.9614 50.2261 12.6764 50.6305 12.5279Z" fill="white"/>
<path d="M81.9456 12.5254C82.3653 12.3521 82.8133 12.5509 83.1691 12.7779C83.5053 12.9767 83.6776 13.3521 83.7997 13.708C83.9319 14.1636 83.7382 14.6303 83.484 15.0049C82.9029 15.7634 81.5488 15.7361 81.0505 14.8982C80.6981 14.4332 80.6657 13.7643 80.972 13.2685C81.1708 12.8931 81.5556 12.6619 81.9456 12.5254Z" fill="white"/>
<path d="M84.2621 13.0774C85.0957 12.9503 85.9379 12.9742 86.7783 12.9818C87.0121 12.9844 87.3031 13.0902 87.3074 13.3675C87.3287 15.5783 87.2869 17.7924 87.3287 20.0032C87.7434 19.7122 87.9661 19.2455 88.3065 18.8829C88.891 18.2395 89.4413 17.5663 89.9951 16.8957C90.2161 16.5962 90.612 16.551 90.9576 16.568C91.8304 16.5766 92.7041 16.5672 93.577 16.5723C93.4763 17.1542 92.9644 17.487 92.6137 17.9145C91.9601 18.6551 91.3902 19.4665 90.6939 20.1696C90.5096 20.3556 90.2374 20.638 90.4652 20.8983C91.3424 21.9682 92.1239 23.1116 92.9721 24.2054C93.2886 24.6338 93.5796 25.0834 93.955 25.464C94.1103 25.6031 94.1427 25.8147 94.1811 26.0092C93.1905 26.0169 92.199 26.0041 91.2084 26.0152C90.8842 26.0493 90.5446 25.9307 90.3594 25.6543C89.6461 24.714 88.955 23.7583 88.2357 22.824C87.8952 22.4401 87.734 21.888 87.2459 21.6517C87.2621 23.0194 87.2041 24.3915 87.2843 25.7575C87.2127 25.9546 86.9729 26.0169 86.7843 26.0126C86.0702 26.0101 85.356 26.0143 84.6418 26.0101C84.472 26.0212 84.2544 25.9077 84.2689 25.7148C84.2724 21.5024 84.2707 17.2899 84.2621 13.0774Z" fill="white"/>
<path d="M33.5613 13.1832C34.1757 12.9341 34.854 13.1004 35.4973 13.0578C35.8224 13.0911 36.2508 12.9332 36.4666 13.2626C36.4948 14.3086 36.4649 15.3581 36.4735 16.4051C36.4487 16.5211 36.534 16.615 36.6484 16.6235C37.238 16.6952 37.8566 16.5279 38.4223 16.7609C38.1569 17.3172 38.0861 17.9341 37.9129 18.5203C37.848 18.7225 37.8233 18.9588 37.6646 19.1141C37.2789 19.1918 36.7934 18.9682 36.4854 19.2797C36.453 20.2908 36.4922 21.3053 36.4718 22.3181C36.4035 22.9785 37.1228 23.4247 37.709 23.4554C38.0383 23.5024 38.4044 23.2686 38.7013 23.4793C38.7243 23.7592 38.581 24.0109 38.5085 24.2729C38.3694 24.7439 38.1962 25.2063 38.1117 25.6927C38.0682 25.9691 37.9001 26.2328 37.6416 26.3522C37.162 26.3846 36.6586 26.4026 36.2038 26.2217C35.8199 26.0724 35.4385 25.9128 35.0733 25.7225C34.0622 25.109 33.546 23.8949 33.5724 22.7404C33.5869 21.6056 33.5519 20.4699 33.5938 19.3351C32.9956 19.0578 32.3156 19.2472 31.6808 19.1952C31.6671 18.7199 31.8702 18.2831 31.9692 17.8274C32.0613 17.4162 32.197 17.016 32.3728 16.6329C32.7772 16.638 33.1885 16.6662 33.5844 16.5586C33.5571 15.4341 33.5963 14.3078 33.5613 13.1832Z" fill="white"/>
<path d="M52.9471 13.1439C53.9155 13.097 54.8874 13.1362 55.8575 13.1252C55.8456 15.2216 55.8533 17.318 55.8541 19.4144C55.8541 19.6124 55.8123 19.8061 55.7662 19.9981C56.221 20.0126 56.4207 19.5621 56.6818 19.2719C57.4104 18.417 58.0743 17.4972 58.8968 16.7284C59.9599 16.6712 61.0308 16.7182 62.0973 16.7071C62.0367 16.8786 62.0035 17.0714 61.8695 17.2045C61.5154 17.5859 61.1724 17.9784 60.8362 18.3769C60.3012 18.9571 59.8541 19.6124 59.3046 20.1807C59.163 20.3368 58.9958 20.4844 58.9215 20.6875C59.1391 21.068 59.4923 21.347 59.7381 21.7088C60.3635 22.5962 61.0197 23.4622 61.6715 24.3317C61.9326 24.7302 62.2108 25.1201 62.5512 25.4563C62.7014 25.5723 62.6869 25.7728 62.7134 25.9418C61.6622 25.9435 60.6101 25.935 59.5589 25.9409C59.3226 25.964 59.1067 25.8343 58.9778 25.644C58.2696 24.6483 57.5239 23.6798 56.7893 22.7037C56.5213 22.3453 56.3242 21.9273 55.977 21.6354C55.8763 21.6832 55.8319 21.7626 55.8439 21.8726C55.8584 23.2276 55.8507 24.5834 55.8524 25.9392C54.9667 25.9324 54.0811 25.952 53.1954 25.9324C53.0546 25.9597 52.9898 25.8377 52.9505 25.7259C52.9078 25.353 53.0316 24.9879 53.0213 24.615C53.0154 22.1969 53.0205 19.7779 53.0196 17.359C52.9932 16.9631 52.9155 16.5706 52.9351 16.1721C52.9539 15.5714 52.8916 14.9656 52.9906 14.37C53.0811 13.9605 52.8669 13.5569 52.9471 13.1439Z" fill="white"/>
<path d="M65.8593 16.3419C66.361 16.1832 66.8909 16.2292 67.4088 16.225C67.8192 16.2199 68.2253 16.3171 68.6059 16.469C69.1835 16.6738 69.7654 16.8982 70.2663 17.2591C71.0769 17.8581 71.7279 18.6755 72.111 19.609C72.3482 20.1354 72.2928 20.7276 72.3849 21.2856C72.402 22.7353 72.373 24.1866 72.3832 25.6371C72.3721 25.9127 72.1102 26.086 71.8516 26.086C71.3354 26.0936 70.8192 26.0868 70.303 26.0851C69.9446 26.0834 69.6306 25.8872 69.2859 25.8325C68.8533 25.8436 68.5018 26.1482 68.0897 26.2489C67.5991 26.3701 67.0837 26.4981 66.5803 26.3744C65.948 26.3069 65.3772 26.0143 64.785 25.8078C63.5478 25.2685 62.5128 24.2523 61.9941 23.0023C61.5709 22.033 61.5564 20.917 61.8439 19.9093C62.268 18.6243 63.1963 17.4938 64.4156 16.8897C64.8755 16.655 65.3704 16.5023 65.8593 16.3419ZM66.7578 18.9383C66.3337 18.9562 65.9531 19.1755 65.605 19.3991C65.0043 19.8035 64.6451 20.4972 64.5487 21.202C64.5879 21.8666 64.8951 22.5151 65.4011 22.9545C65.7825 23.3598 66.3371 23.5143 66.8644 23.6252C67.1596 23.6747 67.4472 23.5672 67.7253 23.4836C68.4796 23.2796 69.0726 22.6525 69.3448 21.9341C69.5154 21.5876 69.5701 21.1747 69.4276 20.8095C69.2996 20.4724 69.1759 20.1209 68.9369 19.8445C68.4131 19.2165 67.5811 18.8299 66.7578 18.9383Z" fill="white"/>
<path d="M76.2279 16.2925C76.8346 16.3164 77.4745 16.196 78.0488 16.4469C78.6597 16.6824 79.2723 16.9512 79.7877 17.3633C79.9473 17.4571 79.9686 17.7063 79.8287 17.8257C79.4652 18.1764 79.1025 18.5271 78.7578 18.8966C78.6409 18.999 78.5232 19.1781 78.3449 19.1022C77.9592 18.9828 77.6315 18.6824 77.2134 18.6756C76.9242 18.667 76.6307 18.6543 76.3448 18.7012C76.0411 18.836 75.8721 19.1841 76.0138 19.4956C76.2851 19.7814 76.6716 19.9333 77.053 20.0066C77.5641 20.0954 78.0556 20.2669 78.5599 20.3881C79.2937 20.6551 79.9874 21.1884 80.2348 21.9572C80.4515 22.4452 80.4353 22.9887 80.4055 23.5109C80.2109 24.5348 79.5104 25.4708 78.5317 25.8625C78.0326 26.0613 77.5479 26.3608 76.995 26.3633C76.3457 26.3685 75.6776 26.4103 75.0582 26.1782C74.3286 25.9051 73.5709 25.6202 72.9882 25.086C72.8662 25.0016 72.8926 24.8266 72.9694 24.7208C73.1989 24.3838 73.4933 24.0963 73.7194 23.7558C73.8781 23.5417 74.001 23.2968 74.2006 23.1167C74.4139 23.0681 74.5709 23.2447 74.7322 23.3514C75.28 23.7908 76.0146 23.9469 76.7041 23.8812C77.0727 23.8181 77.4575 23.6713 77.6938 23.3676C77.7152 23.1816 77.7433 22.9393 77.5445 22.8411C76.914 22.4 76.1051 22.4307 75.4054 22.1637C74.6554 21.9375 73.8807 21.5425 73.5206 20.8087C73.1998 20.301 73.2535 19.6807 73.251 19.1073C73.204 18.0493 73.9848 17.1048 74.9097 16.6824C75.3363 16.5186 75.7612 16.2959 76.2279 16.2925Z" fill="white"/>
<path d="M29.7183 16.3154C30.1082 16.2702 30.5024 16.2873 30.8941 16.2924C31.0997 16.2702 31.3088 16.4631 31.2772 16.6738C31.2618 17.4323 31.2908 18.1926 31.2448 18.9503C30.8642 18.9494 30.4794 18.9008 30.1023 18.9622C29.6697 19.1892 29.348 19.6721 29.3907 20.1713C29.4026 22.0407 29.3693 23.911 29.4086 25.7805C29.2311 25.8616 29.0502 25.9554 28.8497 25.9409C28.2183 25.9392 27.5877 25.9392 26.9572 25.9409C26.7558 25.9546 26.5758 25.8616 26.3992 25.7814C26.4478 24.5109 26.3881 23.2387 26.429 21.9682C26.5843 21.109 26.4299 20.2344 26.5118 19.3701C26.6475 18.6764 26.9145 17.9844 27.4137 17.469C27.9828 16.7745 28.8804 16.5134 29.7183 16.3154Z" fill="white"/>
<path d="M18.6295 16.8155C19.1628 16.5894 19.7123 16.3197 20.307 16.3581C20.8838 16.3667 21.4648 16.3266 22.0391 16.3906C22.8241 16.6423 23.6338 16.9324 24.2498 17.5032C24.7609 17.9622 25.2507 18.4776 25.5195 19.1201C25.6321 19.4085 25.8232 19.6807 25.8232 20.0015C25.8326 20.5015 25.8386 21.0024 25.83 21.5032C25.464 21.528 25.1022 21.6013 24.7345 21.5954C23.1176 21.5937 21.4998 21.5937 19.8829 21.5945C19.5066 21.5902 19.1201 21.6372 18.7566 21.5135C18.7208 21.7003 18.5937 21.9025 18.6995 22.0868C18.9631 22.6082 19.353 23.092 19.8786 23.365C20.208 23.5066 20.5527 23.6218 20.9068 23.6816C21.3906 23.5996 21.865 23.4298 22.2686 23.1474C22.4247 23.0374 22.6918 22.9102 22.8266 23.1167C23.3078 23.7259 23.6995 24.406 24.2259 24.9828C23.6184 25.6065 22.7737 25.8804 21.9785 26.173C21.3966 26.2549 20.8027 26.1995 20.2165 26.2123C19.8479 26.2345 19.5211 26.0459 19.1833 25.9307C17.9614 25.5442 16.952 24.6167 16.3436 23.5015C16.1483 23.0792 15.9128 22.6508 15.9059 22.173C15.8897 21.7344 15.9034 21.2942 15.8991 20.8556C15.9008 20.4972 15.8778 20.1269 16.0083 19.7856C16.1935 19.3001 16.4008 18.8138 16.7225 18.4025C17.2413 17.7523 17.8539 17.1457 18.6295 16.8155ZM19.458 19.3965C19.4008 19.5262 19.3974 19.6721 19.3667 19.8095C20.3872 19.6662 21.4264 19.6662 22.4469 19.8095C22.4154 19.6721 22.4111 19.5271 22.3556 19.3965C22.0903 19.2199 21.7942 19.0885 21.4896 18.993C20.7916 18.8121 20.045 18.9921 19.458 19.3965Z" fill="white"/>
<path d="M39.2985 17.0168C39.2806 16.7762 39.5409 16.6209 39.7576 16.638C40.569 16.6397 41.3822 16.6235 42.1945 16.6525C42.1817 17.0902 42.2457 17.5228 42.2713 17.9579C42.2721 20.4912 42.2696 23.0245 42.273 25.5578C42.29 25.7763 42.1313 26.0126 41.8975 26.0126C41.2124 26.0211 40.5272 26.016 39.8429 26.0152C39.6023 26.01 39.2712 25.836 39.296 25.5612C39.3062 22.7131 39.2994 19.865 39.2985 17.0168Z" fill="white"/>
<path d="M51.4548 16.6747C51.779 16.6277 52.1084 16.6303 52.436 16.6371C52.4462 19.7583 52.4531 22.8803 52.4326 26.0007C51.6485 26.0297 50.8635 26.0109 50.0785 26.0169C49.8012 26.0288 49.4641 25.7763 49.5392 25.4734C49.6553 24.8804 49.6041 24.2754 49.6135 23.6756C49.61 21.7131 49.6194 19.7498 49.6092 17.7873C49.6126 17.4358 49.3507 16.9375 49.7594 16.7225C50.3217 16.661 50.8925 16.754 51.4548 16.6747Z" fill="white"/>
<path d="M94.2118 16.6636C95.0002 16.5988 95.8015 16.656 96.595 16.6363C96.8373 16.6065 97.0062 16.8761 96.9755 17.0979C96.9678 18.8087 96.9772 20.5203 96.9687 22.2311C96.9525 22.6253 97.0668 23.0536 97.3561 23.3335C97.6317 23.4973 97.9474 23.6722 98.2801 23.6278C98.6018 23.5314 98.9346 23.377 99.1257 23.0852C99.3143 22.8079 99.2716 22.4563 99.2835 22.1389C99.2742 20.4299 99.287 18.7208 99.2759 17.0118C99.2366 16.7967 99.4755 16.6457 99.6667 16.6406C100.292 16.6261 100.918 16.6457 101.545 16.6338C101.748 16.6423 101.987 16.5996 102.145 16.7643C102.211 16.8932 102.181 17.045 102.192 17.185C102.173 19.0928 102.203 21.0015 102.176 22.9094C102.088 23.8232 101.699 24.7413 100.976 25.3318C100.441 25.7951 99.7528 25.9965 99.1052 26.243C98.7085 26.3941 98.2793 26.3659 97.8638 26.3634C97.2639 26.377 96.7289 26.0664 96.1837 25.8608C95.391 25.5587 94.7298 24.9316 94.4192 24.1381C94.2673 23.7132 94.0617 23.2874 94.0719 22.8249C94.0711 20.9188 94.0762 19.0126 94.0694 17.1065C94.0668 16.9469 94.077 16.7729 94.2118 16.6636Z" fill="white"/>
<path d="M80.9217 16.923C80.8909 16.7464 81.0855 16.6901 81.222 16.7063C82.0684 16.7003 82.9157 16.7029 83.7621 16.7097C83.7664 19.7805 83.7485 22.8531 83.7715 25.9239C83.2664 25.9572 82.7604 25.9401 82.2553 25.9444C81.8082 25.9384 81.3585 25.9717 80.9165 25.8941C80.9345 22.9034 80.92 19.9128 80.9217 16.923Z" fill="white"/>
<path d="M4.02789 12.2565C5.35725 12.0552 6.71647 12.2992 8.04497 12.0586C9.06119 12.3282 10.0527 12.8035 10.7711 13.5893C11.4989 14.2728 11.9895 15.1951 12.1568 16.1789C12.1994 16.6593 12.1747 17.1422 12.179 17.6243C12.1952 18.1568 12.004 18.6636 11.8121 19.1508C11.3095 20.3632 10.3615 21.3923 9.17638 21.9622C8.73013 22.1576 8.26938 22.3718 7.77108 22.3616C7.37347 22.3598 6.96135 22.3999 6.57824 22.2694C5.86578 22.0143 5.20025 21.5808 4.76168 20.9545C4.57823 20.7336 4.4383 20.4349 4.15673 20.3257C3.73778 20.2745 3.31287 20.3129 2.89221 20.3214C3.28556 21.7122 4.44512 22.8044 5.77278 23.318C6.69172 23.603 7.68661 23.6201 8.6286 23.4366C9.38372 23.2805 10.0714 22.8786 10.6423 22.3667C11.1192 21.9435 11.597 21.5083 11.9563 20.9759C12.4008 20.3155 12.8095 19.615 13.0186 18.8411C13.272 18.0339 13.3215 17.1781 13.2489 16.3393C13.1619 15.76 12.8172 15.2446 12.8223 14.6456C13.103 14.9076 13.3906 15.1764 13.5663 15.5236C13.8752 16.1132 14.1807 16.7165 14.3266 17.3709C14.7771 19.016 14.5297 20.8189 13.7344 22.318C12.9238 23.7677 11.6013 24.9273 10.051 25.5262C9.33167 25.8146 8.55778 25.9315 7.79156 26.0092C7.25743 26.0621 6.725 25.9674 6.19599 25.9059C5.15673 25.7686 4.19171 25.2967 3.3342 24.7105C2.39136 24.0706 1.61832 23.2003 1.04579 22.2191C0.676331 21.5808 0.634522 20.8163 0.25824 20.1807V17.9281C1.85125 17.8982 3.44512 17.923 5.03813 17.9136C5.47499 17.9119 5.90759 17.818 6.34531 17.8573C6.38967 18.5219 6.4238 19.3086 6.98865 19.7617C7.28388 20.0518 7.75146 20.01 8.09446 19.8334C8.84788 19.4639 9.3914 18.7506 9.67724 17.9742C9.82826 17.5893 9.78645 17.1687 9.7873 16.7651C9.79584 16.2788 9.53901 15.8299 9.22416 15.4758C8.65249 14.8871 7.89224 14.5236 7.12091 14.2711C5.94769 13.8709 4.77533 13.2821 4.02789 12.2565Z" fill="white"/>
</g>
<defs>
<clipPath id="clip0_1_54">
<rect width="102.39" height="31.0582" fill="white" transform="translate(0.25824 0.211243)"/>
</clipPath>
</defs>
</svg>
