<svg width="31" height="31" viewBox="0 0 31 31" fill="none" xmlns="http://www.w3.org/2000/svg">
<g clip-path="url(#clip0_1_269)">
<path d="M21.1141 0.5H21.3137C21.7557 0.552422 22.1328 0.946182 22.1334 1.39713C22.1363 2.03036 22.1375 2.66359 22.1334 3.29683C22.1262 3.77398 21.6919 4.19038 21.216 4.18085C20.7418 4.19157 20.3069 3.77637 20.298 3.30159C20.2926 2.66657 20.2938 2.03155 20.2968 1.39653C20.2962 0.946182 20.6745 0.5554 21.1141 0.5Z" fill="#1BD9DE"/>
<path d="M26.5219 2.23827C27.0956 2.0667 27.721 2.58318 27.6692 3.17709C27.6656 3.52915 27.4101 3.78888 27.17 4.01227C26.5934 4.58653 26.0203 5.16436 25.4425 5.73683C25.2155 5.96558 24.8635 6.0597 24.5537 5.96975C24.2255 5.88337 23.9598 5.59982 23.8948 5.26682C23.8305 4.97135 23.9276 4.64729 24.1438 4.43581C24.7872 3.78888 25.4341 3.14552 26.0787 2.49978C26.1996 2.37468 26.3509 2.27818 26.5219 2.23827Z" fill="#1BD9DE"/>
<path d="M26.4212 7.91829C26.6029 7.84561 26.8025 7.86467 26.9937 7.86289C27.5483 7.86646 28.1035 7.85633 28.6581 7.86765C29.14 7.89684 29.5344 8.36149 29.4956 8.84103C29.4736 9.29972 29.062 9.70123 28.6003 9.70063C27.9665 9.70182 27.3326 9.70301 26.6994 9.70003C26.2455 9.6905 25.8398 9.29555 25.819 8.84282C25.7838 8.4437 26.0501 8.05649 26.4212 7.91829Z" fill="#1BD9DE"/>
<path d="M13.7631 1.80221C14.4416 1.12132 15.6545 1.12966 16.3253 1.8177C18.2887 3.77101 20.2378 5.73862 22.2054 7.68716C21.3363 8.55808 20.4725 9.43436 19.5921 10.2934C17.6424 8.32754 15.6759 6.37721 13.7214 4.41556C13.4456 4.14332 13.3068 3.76863 13.2359 3.39512C13.1633 2.81848 13.373 2.22635 13.7631 1.80221Z" fill="#53B966"/>
<path d="M2.62587 20.7509C4.15623 19.2122 5.69612 17.6831 7.22708 16.145C8.31603 17.2351 9.41033 18.3199 10.4933 19.4154C10.0537 19.8377 9.61406 20.2625 9.20243 20.7116C8.96058 20.4864 8.60852 20.3631 8.28386 20.465C8.08489 20.5109 7.92644 20.6473 7.78823 20.7902C7.37481 21.2102 6.95187 21.6201 6.54143 22.043C6.1983 22.4004 6.24715 23.0164 6.61172 23.341C6.38952 23.4548 6.24477 23.6657 6.06546 23.8319C5.36432 24.5217 4.68045 25.2282 3.97335 25.9115C3.71303 25.6339 3.43662 25.3712 3.16975 25.1002C2.78552 24.707 2.34768 24.3418 2.11833 23.8289C1.62688 22.8281 1.8455 21.5438 2.62587 20.7509Z" fill="#53B966"/>
<path d="M13.2359 3.39513C13.3068 3.76863 13.4456 4.14333 13.7214 4.41557C15.6759 6.37722 17.6424 8.32755 19.5921 10.2934C21.5305 12.2437 23.4796 14.1827 25.4216 16.1295C25.6683 16.3934 26.0096 16.5411 26.3581 16.6168C25.0392 16.9033 23.7054 17.1279 22.4038 17.4883C20.3427 18.084 18.3882 19.0311 16.6195 20.2428C16.0923 20.6038 15.5812 20.9892 15.0945 21.4038C14.6239 21.7988 14.1748 22.2188 13.7447 22.6572L13.7351 22.6667C12.6593 21.5784 11.568 20.5049 10.4933 19.4154C9.41033 18.3199 8.31603 17.2351 7.22708 16.145C9.77014 13.6734 11.6031 10.487 12.4717 7.04917C12.7731 5.84168 12.9756 4.61215 13.2359 3.39513Z" fill="#E2E7E7"/>
<path d="M7.78823 20.7902C7.92644 20.6473 8.08489 20.5109 8.28386 20.465C8.60852 20.3631 8.96058 20.4864 9.20243 20.7116C9.52411 21.0387 9.54675 21.6022 9.23877 21.9453C8.88373 22.3236 8.50665 22.681 8.14327 23.0515C7.95443 23.235 7.77692 23.4566 7.51421 23.5347C7.20802 23.6395 6.84702 23.5644 6.61172 23.3411C6.24715 23.0164 6.1983 22.4004 6.54143 22.043C6.95187 21.6201 7.37482 21.2102 7.78823 20.7902Z" fill="white"/>
<path d="M22.2054 7.68715C24.0277 9.49332 25.8351 11.3144 27.652 13.1265C27.9486 13.4297 28.2911 13.7139 28.4508 14.1196C28.7594 14.8207 28.5711 15.7154 27.9832 16.2117C27.6972 16.3898 27.4 16.5721 27.0622 16.6304C26.8287 16.6596 26.591 16.6507 26.3581 16.6167C26.0096 16.5411 25.6683 16.3934 25.4216 16.1295C23.4797 14.1827 21.5305 12.2437 19.5921 10.2933C20.4725 9.43435 21.3363 8.55807 22.2054 7.68715Z" fill="#109DD4"/>
<path d="M9.20243 20.7116C9.61406 20.2624 10.0537 19.8377 10.4933 19.4154C11.568 20.5049 12.6593 21.5783 13.7351 22.6667C12.8708 23.5334 12.0052 24.3984 11.1391 25.2634C10.6494 25.7513 10.1609 26.2415 9.67185 26.73C9.31085 27.0844 8.97308 27.4818 8.50963 27.7069C7.48502 28.2514 6.14111 28.0501 5.30713 27.2477C4.85856 26.8068 4.41179 26.363 3.97335 25.9115C4.68045 25.2282 5.36432 24.5217 6.06546 23.8319C6.24476 23.6657 6.38952 23.4548 6.61172 23.341C6.84702 23.5644 7.20802 23.6395 7.51421 23.5346C7.77691 23.4566 7.95443 23.235 8.14327 23.0515C8.50665 22.681 8.88373 22.3236 9.23877 21.9453C9.54675 21.6022 9.52411 21.0386 9.20243 20.7116Z" fill="#109DD4"/>
<path d="M15.0945 21.4038C15.5812 20.9892 16.0923 20.6038 16.6195 20.2428L16.5677 20.2809C16.9513 20.658 17.3564 21.041 17.5631 21.5498C17.9122 22.3415 17.8574 23.2952 17.4172 24.0404C17.1455 24.517 16.7047 24.8577 16.3378 25.255C17.1872 26.0991 18.0319 26.9486 18.8796 27.7945C19.0631 27.975 19.2216 28.1829 19.324 28.42C19.5957 29.027 19.5021 29.777 19.0851 30.2959C18.7784 30.6974 18.2976 30.9404 17.8002 31H17.4452C17.2051 30.9511 16.9621 30.8934 16.7482 30.7689C16.4587 30.614 16.2424 30.3614 16.0119 30.1344C14.3868 28.5111 12.7653 26.8855 11.1391 25.2634C12.0052 24.3984 12.8708 23.5335 13.7351 22.6667L13.7447 22.6572C14.173 23.0914 14.6078 23.5198 15.0373 23.9534C15.2607 23.7306 15.4865 23.5102 15.7063 23.2833C16.003 22.9806 16.0375 22.466 15.7909 22.1234C15.58 21.8637 15.3233 21.6469 15.0945 21.4038Z" fill="#082668"/>
</g>
<defs>
<clipPath id="clip0_1_269">
<rect width="30.5" height="30.5" fill="white" transform="translate(0.425934 0.5)"/>
</clipPath>
</defs>
</svg>
