<svg width="16" height="20" viewBox="0 0 16 20" fill="none" xmlns="http://www.w3.org/2000/svg">
<path fill-rule="evenodd" clip-rule="evenodd" d="M8.94072 1.27582C8.94072 0.72976 8.49806 0.287079 7.95198 0.287079C7.40589 0.287079 6.96323 0.72976 6.96323 1.27582V2.01738H6.4121C4.21206 2.01738 2.39119 3.72792 2.25386 5.92366L2.03534 9.41735C1.95202 10.7494 1.50483 12.0331 0.742444 13.1285C0.0536049 14.1182 0.666845 15.4853 1.86415 15.6289L5.23293 16.0332V17.0957C5.23293 18.5974 6.45027 19.8148 7.95198 19.8148C9.45368 19.8148 10.671 18.5974 10.671 17.0957V16.0332L14.0398 15.6289C15.2371 15.4853 15.8504 14.1182 15.1615 13.1285C14.3991 12.0331 13.9519 10.7494 13.8686 9.41735L13.6501 5.92366C13.5128 3.72792 11.6919 2.01738 9.49185 2.01738H8.94072V1.27582ZM6.4121 3.5005C4.99521 3.5005 3.82252 4.60213 3.73408 6.01624L3.51557 9.50989C3.41531 11.1128 2.87718 12.6575 1.95978 13.9757C1.90999 14.0472 1.95431 14.146 2.04085 14.1564L5.73645 14.5999C7.20814 14.7764 8.69581 14.7764 10.1675 14.5999L13.8631 14.1564C13.9496 14.146 13.994 14.0472 13.9442 13.9757C13.0268 12.6575 12.4886 11.1128 12.3884 9.50989L12.1699 6.01624C12.0814 4.60213 10.9087 3.5005 9.49185 3.5005H6.4121ZM7.95198 18.3317C7.26935 18.3317 6.71604 17.7784 6.71604 17.0957V16.3542H9.18791V17.0957C9.18791 17.7784 8.6346 18.3317 7.95198 18.3317Z" fill="white"/>
</svg>
