<svg width="28" height="27" viewBox="0 0 28 27" fill="none" xmlns="http://www.w3.org/2000/svg">
<path fill-rule="evenodd" clip-rule="evenodd" d="M14.5658 3.71448C14.292 3.63676 14.0031 3.63682 13.7291 3.71479C13.1458 3.88077 12.557 4.03451 11.9661 4.18877C9.32956 4.87718 6.42649 5.63517 3.94311 7.66167L2.77225 8.61713C1.83856 9.37905 1.83905 10.8712 2.77354 11.6323L3.92547 12.5705C4.7765 13.2638 5.66342 13.8059 6.57233 14.2481V19.4556C6.57233 20.7306 7.35445 21.875 8.54231 22.3381L13.0423 24.0926C13.765 24.3743 14.5671 24.3743 15.2898 24.0926L19.7898 22.3381C20.9777 21.875 21.7598 20.7306 21.7598 19.4556V14.2575C22.6628 13.8176 23.5437 13.2782 24.3891 12.5883L24.5723 12.4388V18C24.5723 18.466 24.9501 18.8438 25.4161 18.8438C25.8821 18.8438 26.2598 18.466 26.2598 18V10.125C26.2596 9.56158 26.0258 8.99826 25.5586 8.61768L24.4067 7.67945C21.9053 5.64206 18.8802 4.85309 16.3252 4.18672C15.7357 4.03296 15.1481 3.87971 14.5658 3.71448ZM10.0026 14.4137C9.57529 14.2279 9.07821 14.4236 8.89235 14.851C8.7065 15.2783 8.90224 15.7754 9.32956 15.9613C10.7671 16.5864 12.2553 17.0981 13.7803 17.4895C14.046 17.5577 14.3248 17.5577 14.5905 17.4891C16.1114 17.0978 17.5952 16.5861 19.0282 15.9608C19.4553 15.7744 19.6504 15.2772 19.464 14.85C19.2776 14.423 18.7804 14.2278 18.3532 14.4142C17.007 15.0017 15.6134 15.4826 14.1849 15.8511C12.752 15.4825 11.3536 15.0014 10.0026 14.4137Z" fill="#109DD4"/>
</svg>
