<svg width="28" height="28" viewBox="0 0 28 28" fill="none" xmlns="http://www.w3.org/2000/svg">
<path fill-rule="evenodd" clip-rule="evenodd" d="M13.7284 3.72099C14.0028 3.64289 14.2922 3.64283 14.5665 3.72068C15.1497 3.88619 15.7383 4.03969 16.3288 4.19371C19.1018 4.91695 21.9182 5.65146 24.4238 7.69225L25.5776 8.63204C26.0456 9.01325 26.2797 9.57751 26.28 10.1419V18.03C26.28 18.4967 25.9016 18.8751 25.4348 18.8751C24.9681 18.8751 24.5897 18.4967 24.5897 18.03V12.4595L24.4061 12.6093C23.5378 13.3177 22.6321 13.868 21.7035 14.3146C21.7479 14.4172 21.7725 14.5304 21.7725 14.6494V19.488C21.7725 20.7651 20.9891 21.9114 19.7992 22.3753L15.2917 24.1327C14.5678 24.4148 13.7644 24.4148 13.0405 24.1327L8.53297 22.3753C7.34313 21.9114 6.55971 20.7651 6.55971 19.488V14.6494C6.55971 14.5274 6.58553 14.4115 6.63203 14.3068C5.69633 13.8575 4.78345 13.3042 3.90845 12.5915L2.7546 11.6517C1.81855 10.8893 1.81806 9.39468 2.7533 8.63149L3.92611 7.67444C6.41363 5.64457 9.21003 4.91443 11.9625 4.19576C12.5543 4.04124 13.1441 3.88724 13.7284 3.72099ZM24.5897 10.1425C24.5897 10.041 24.5486 9.97399 24.5101 9.94264L23.3563 9.00285C20.9273 7.32469 18.7631 6.58455 16.0141 5.86219C15.4096 5.70336 14.788 5.54002 14.1481 5.35896C13.5052 5.54132 12.8813 5.70544 12.2749 5.865C9.54795 6.5824 7.17186 7.20751 4.9948 8.98404L3.82197 9.94111C3.78344 9.97254 3.74248 10.0397 3.74252 10.1412C3.74257 10.2427 3.78358 10.3098 3.82206 10.3411L4.97592 11.2809C7.17143 13.0691 9.56919 13.6992 12.3181 14.4215C12.9226 14.5804 13.5442 14.7437 14.1841 14.9248C14.827 14.7424 15.4507 14.5784 16.0572 14.4188C18.7841 13.7013 21.1604 13.0762 23.3374 11.2997L24.5102 10.3426C24.5488 10.3112 24.5897 10.2439 24.5897 10.1425ZM16.3697 16.0879C17.609 15.7644 18.8573 15.4385 20.0822 14.9926V19.488C20.0822 20.0686 19.7261 20.5896 19.1852 20.8004L14.6777 22.5578C14.3488 22.686 13.9834 22.686 13.6545 22.5578L9.14696 20.8004C8.60612 20.5896 8.25001 20.0686 8.25001 19.488V14.983C9.48819 15.434 10.7502 15.7632 12.0034 16.0901C12.5939 16.244 13.1824 16.3976 13.7657 16.563C14.04 16.6409 14.3295 16.6409 14.6038 16.5628C15.1881 16.3965 15.7779 16.2425 16.3697 16.0879Z" fill="#ACB5BD"/>
</svg>
