<svg width="26" height="26" viewBox="0 0 26 26" fill="none" xmlns="http://www.w3.org/2000/svg">
<rect x="0.5" y="0.0975609" width="25.0323" height="25.0323" rx="12.5161" fill="#53B966" fill-opacity="0.19"/>
<path fill-rule="evenodd" clip-rule="evenodd" d="M12.7416 6.46431C12.9137 6.41532 13.0953 6.41528 13.2673 6.46412C13.6333 6.56796 14.0025 6.66426 14.373 6.76089C16.1128 7.21465 17.8797 7.67548 19.4517 8.95585L20.1756 9.54546C20.4692 9.78463 20.6161 10.1386 20.6163 10.4927V15.4416C20.6163 15.7345 20.3789 15.9719 20.086 15.9719C19.7932 15.9719 19.5558 15.7345 19.5558 15.4416V11.9468L19.4406 12.0407C18.8959 12.4852 18.3276 12.8304 17.7451 13.1106C17.7729 13.175 17.7883 13.246 17.7883 13.3207V16.3564C17.7883 17.1576 17.2968 17.8768 16.5503 18.1679L13.7224 19.2704C13.2682 19.4474 12.7641 19.4474 12.3099 19.2704L9.48198 18.1679C8.73549 17.8768 8.24397 17.1576 8.24397 16.3564V13.3207C8.24397 13.2442 8.26018 13.1714 8.28935 13.1057C7.7023 12.8239 7.12957 12.4767 6.5806 12.0296L5.85668 11.4399C5.26941 10.9616 5.26911 10.0239 5.85587 9.54512L6.59168 8.94467C8.15233 7.67115 9.90676 7.21307 11.6336 6.76218C12.0049 6.66524 12.375 6.56862 12.7416 6.46431ZM19.5558 10.4931C19.5558 10.4294 19.5301 10.3874 19.5059 10.3677L18.782 9.77811C17.2581 8.72524 15.9002 8.26089 14.1755 7.80768C13.7963 7.70803 13.4063 7.60556 13.0048 7.49196C12.6015 7.60638 12.2101 7.70934 11.8296 7.80944C10.1188 8.25954 8.62803 8.65172 7.26216 9.76631L6.52634 10.3668C6.50217 10.3865 6.47647 10.4286 6.4765 10.4923C6.47653 10.556 6.50226 10.598 6.5264 10.6177L7.25032 11.2073C8.62776 12.3293 10.1321 12.7245 11.8568 13.1777C12.236 13.2774 12.626 13.3798 13.0275 13.4935C13.4308 13.3791 13.8221 13.2761 14.2026 13.176C15.9135 12.7259 17.4043 12.3337 18.7701 11.2191L19.506 10.6187C19.5301 10.599 19.5558 10.5567 19.5558 10.4931ZM14.3987 14.2232C15.1762 14.0202 15.9593 13.8158 16.7278 13.536V16.3564C16.7278 16.7207 16.5044 17.0475 16.1651 17.1798L13.3371 18.2823C13.1308 18.3628 12.9015 18.3628 12.6952 18.2823L9.86719 17.1798C9.52787 17.0475 9.30446 16.7207 9.30446 16.3564V13.53C10.0813 13.8129 10.873 14.0195 11.6593 14.2246C12.0298 14.3211 12.399 14.4175 12.765 14.5213C12.937 14.5701 13.1187 14.5701 13.2907 14.5211C13.6573 14.4168 14.0274 14.3202 14.3987 14.2232Z" fill="#53B966"/>
</svg>
