<svg width="25" height="25" viewBox="0 0 25 25" fill="none" xmlns="http://www.w3.org/2000/svg">
<rect width="24.4883" height="24.4883" rx="12.2442" fill="#53B966" fill-opacity="0.19"/>
<g clip-path="url(#clip0_331_488)">
<path fill-rule="evenodd" clip-rule="evenodd" d="M6.44404 10.0932C6.68652 7.15158 9.14472 4.88766 12.0963 4.88766H12.392C15.3436 4.88766 17.8018 7.15158 18.0442 10.0932C18.1745 11.6734 17.6864 13.2425 16.6827 14.47L13.4027 18.4814C12.8039 19.2137 11.6844 19.2137 11.0856 18.4814L7.80557 14.47C6.8019 13.2425 6.31378 11.6734 6.44404 10.0932ZM12.0963 5.91415C9.67894 5.91415 7.66565 7.76832 7.46706 10.1776C7.35866 11.4927 7.7649 12.7986 8.60023 13.8202L11.8802 17.8316C12.0683 18.0616 12.4199 18.0616 12.6081 17.8316L15.888 13.8202C16.7234 12.7986 17.1296 11.4927 17.0212 10.1776C16.8226 7.76832 14.8093 5.91415 12.392 5.91415H12.0963Z" fill="#53B966"/>
<path d="M12.9287 14.9815C12.9287 15.3594 12.6223 15.6658 12.2444 15.6658C11.8664 15.6658 11.5601 15.3594 11.5601 14.9815C11.5601 14.6035 11.8664 14.2971 12.2444 14.2971C12.6223 14.2971 12.9287 14.6035 12.9287 14.9815Z" fill="#53B966"/>
<path fill-rule="evenodd" clip-rule="evenodd" d="M12.2441 9.33578C11.5962 9.33578 11.0465 9.88011 11.0465 10.5822C11.0465 10.8657 10.8167 11.0955 10.5333 11.0955C10.2498 11.0955 10.02 10.8657 10.02 10.5822C10.02 9.34065 11.0022 8.3093 12.2441 8.3093C13.4859 8.3093 14.4681 9.34065 14.4681 10.5822C14.4681 11.5615 13.8603 12.4049 12.9955 12.722C12.9103 12.7533 12.841 12.8011 12.7992 12.8476C12.7601 12.8912 12.7573 12.9178 12.7573 12.9285C12.7573 13.2119 12.5275 13.4417 12.2441 13.4417C11.9606 13.4417 11.7308 13.2119 11.7308 12.9285C11.7308 12.2965 12.2396 11.9059 12.6421 11.7583C13.1016 11.5898 13.4417 11.1319 13.4417 10.5822C13.4417 9.88011 12.8919 9.33578 12.2441 9.33578Z" fill="#53B966"/>
</g>
<defs>
<clipPath id="clip0_331_488">
<rect width="16.4238" height="16.4238" fill="white" transform="translate(4.03223 4.03226)"/>
</clipPath>
</defs>
</svg>
