<svg width="19" height="18" viewBox="0 0 19 18" fill="none" xmlns="http://www.w3.org/2000/svg">
<path fill-rule="evenodd" clip-rule="evenodd" d="M18.75 9C18.75 9.2724 18.6023 9.5233 18.3642 9.6556L16.0819 10.9236C11.5705 13.4299 6.81474 15.4687 1.88879 17.008L1.22371 17.2159C0.99598 17.287 0.74798 17.2456 0.55575 17.1043C0.36352 16.9629 0.25 16.7386 0.25 16.5V10.75C0.25 10.359 0.55041 10.0336 0.94019 10.0024L1.16752 9.9842C3.31898 9.8121 5.45387 9.4829 7.5552 8.9997C5.42436 8.5098 3.25902 8.1782 1.0769 8.0083L0.94175 7.9977C0.55131 7.9673 0.25 7.6416 0.25 7.25V1.50001C0.25 1.26142 0.36352 1.03706 0.55575 0.89574C0.74798 0.75441 0.99598 0.71298 1.22371 0.78415L1.88878 0.99198C6.81474 2.53134 11.5705 4.57008 16.0819 7.0764L18.3642 8.3444C18.6023 8.4767 18.75 8.7276 18.75 9ZM16.4557 9L15.3534 8.3877C11.0256 5.98333 6.46847 4.01801 1.75 2.52089V6.55957C4.68008 6.82384 7.5783 7.3702 10.4043 8.1912L10.7092 8.2798C11.0299 8.3729 11.2503 8.6668 11.25 9.0007C11.2497 9.3346 11.0287 9.6281 10.7078 9.7206L10.3173 9.8333C7.5188 10.6404 4.65003 11.1784 1.75 11.44V15.4791C6.46846 13.982 11.0256 12.0167 15.3534 9.6124L16.4557 9Z" fill="white"/>
</svg>
