<svg width="27" height="27" viewBox="0 0 27 27" fill="none" xmlns="http://www.w3.org/2000/svg">
<g clip-path="url(#clip0_1_302)">
<path d="M0.710332 0H0.863262C1.09002 0.0406055 1.29779 0.14291 1.51084 0.225176C2.31715 0.545273 3.12029 0.873281 3.92818 1.18811C3.01377 2.09988 2.09936 3.01113 1.18916 3.9266C0.869062 3.10816 0.537363 2.29447 0.21252 1.47762C0.130781 1.2651 0.0242578 1.05785 0 0.828457V0.725098C0.0300586 0.352793 0.341719 0.0416602 0.710332 0Z" fill="#46525F"/>
<path d="M21.1744 6.1984C21.4597 5.87883 22.005 5.8609 22.3066 6.16728C23.0302 6.88553 23.7484 7.6101 24.4714 8.32992C24.5663 8.42115 24.6655 8.5108 24.7293 8.6284C24.3643 8.9949 23.9994 9.36193 23.6313 9.72527C22.8134 8.91527 22.0013 8.09894 21.1881 7.28525C20.9007 6.99785 20.8949 6.49213 21.1744 6.1984Z" fill="white"/>
<path d="M18.9121 9.21058C19.1874 8.86465 19.7564 8.83512 20.0675 9.14941C20.7563 9.84023 21.4555 10.5216 22.1321 11.2235C21.7661 11.5952 21.397 11.9638 21.0257 12.3304C20.3281 11.6654 19.6599 10.9698 18.9733 10.2927C18.6769 10.0174 18.6469 9.51697 18.9121 9.21058Z" fill="white"/>
<path d="M9.30287 18.8462C9.61189 18.6495 10.0454 18.7091 10.2948 18.9749C10.9709 19.6604 11.6675 20.327 12.3303 21.0257C11.9633 21.3964 11.5952 21.7661 11.224 22.1321C10.5738 21.5067 9.94675 20.857 9.30445 20.2242C9.16945 20.0934 9.02654 19.9563 8.96958 19.7717C8.84988 19.4353 8.99437 19.0271 9.30287 18.8462Z" fill="white"/>
<path d="M5.969 21.5647C6.04388 21.2319 6.35923 20.9783 6.69884 20.9677C6.94142 20.9519 7.17609 21.0642 7.34009 21.2393C8.13322 22.0382 8.93531 22.8287 9.7258 23.6308C9.3614 23.9999 8.99384 24.3659 8.62523 24.7314C8.57935 24.6987 8.534 24.6649 8.49023 24.6296C7.724 23.8634 6.9583 23.0966 6.19101 22.3314C5.98904 22.1374 5.89834 21.8362 5.969 21.5647Z" fill="white"/>
<path d="M20.9614 0H21.0099C21.2092 0.0121289 21.4049 0.0896484 21.5473 0.231504C22.4216 1.0974 23.2833 1.97596 24.1618 2.83816C21.7751 5.23916 19.3746 7.62645 16.9836 10.0232C16.7563 10.2516 16.5227 10.4736 16.306 10.7119C15.246 9.65303 14.1877 8.59254 13.1282 7.53258C15.5529 5.10732 17.9787 2.68313 20.4029 0.257344C20.5474 0.102832 20.751 0.0131836 20.9614 0Z" fill="#53B966"/>
<path d="M0.256289 20.404C2.68049 17.9814 5.10258 15.5577 7.52678 13.1346C8.59096 14.1908 9.64828 15.2539 10.7093 16.3139C9.92725 17.0554 9.18317 17.8353 8.4143 18.5899C6.5591 20.4509 4.69705 22.3045 2.84291 24.1655C1.98018 23.2854 1.10004 22.4216 0.232031 21.5467C0.0907031 21.4065 0.0142383 21.2124 0 21.0152V20.9624C0.0126563 20.752 0.102832 20.549 0.256289 20.404Z" fill="#53B966"/>
<path d="M1.18916 3.9266C2.09936 3.01113 3.01377 2.09988 3.92819 1.1881C5.44483 1.80404 6.9678 2.40468 8.48655 3.01588C8.60994 3.06545 8.72385 3.13611 8.82615 3.22101C8.78344 3.25424 8.74231 3.28746 8.70117 3.32226C7.79309 4.22349 6.89713 5.13738 5.98219 6.03175C5.0509 6.95144 4.13121 7.88326 3.20309 8.80558C3.04383 8.61468 2.9758 8.37263 2.88194 8.14746C2.31662 6.74103 1.76028 5.33091 1.18916 3.9266Z" fill="#FFCFAF"/>
<path d="M24.1618 2.83817C25.023 3.6835 25.8693 4.5436 26.7252 5.3942C26.8592 5.51813 26.9493 5.68055 27 5.8551V6.16623C26.9509 6.32918 26.8729 6.48633 26.7479 6.60498C26.0766 7.28104 25.3984 7.95024 24.7292 8.6284C24.6654 8.5108 24.5663 8.42115 24.4714 8.32992C23.7484 7.6101 23.0301 6.88553 22.3066 6.16729C22.005 5.8609 21.4597 5.87883 21.1744 6.1984C20.8949 6.49213 20.9007 6.99785 21.1881 7.28525C22.0013 8.09895 22.8134 8.91527 23.6313 9.72527C23.1293 10.2226 22.6304 10.7225 22.1321 11.2235C21.4555 10.5216 20.7562 9.84024 20.0675 9.14942C19.7564 8.83512 19.1874 8.86465 18.9121 9.21059C18.6468 9.51697 18.6769 10.0174 18.9733 10.2927C19.6599 10.9698 20.328 11.6654 21.0257 12.3304C20.5063 12.8456 19.9895 13.3634 19.4737 13.8823C18.419 12.8239 17.3607 11.7698 16.306 10.7119C16.5227 10.4736 16.7563 10.2516 16.9836 10.0232C19.3746 7.62645 21.7751 5.23916 24.1618 2.83817Z" fill="#4AA05A"/>
<path d="M8.41428 18.5899C9.18315 17.8353 9.92723 17.0553 10.7093 16.3139C11.7645 17.3696 12.8229 18.4228 13.8744 19.4822C13.3576 19.9942 12.8429 20.5089 12.3303 21.0257C11.6675 20.327 10.9708 19.6604 10.2948 18.9749C10.0454 18.7091 9.61188 18.6495 9.30286 18.8462C8.99436 19.0271 8.84987 19.4353 8.96957 19.7717C9.02653 19.9563 9.16944 20.0934 9.30444 20.2242C9.94674 20.857 10.5738 21.5067 11.224 22.1321C10.723 22.6299 10.2225 23.1288 9.72579 23.6308C8.9353 22.8287 8.13321 22.0382 7.34008 21.2393C7.17608 21.0642 6.94141 20.9519 6.69883 20.9677C6.35922 20.9783 6.04387 21.2319 5.96899 21.5647C5.89833 21.8362 5.98903 22.1374 6.191 22.3314C6.95829 23.0966 7.72399 23.8634 8.49022 24.6296C8.53399 24.6649 8.57934 24.6987 8.62522 24.7314C7.93862 25.4095 7.26151 26.0967 6.57596 26.7764C6.46469 26.8887 6.31545 26.9515 6.1678 27H5.85614C5.69319 26.9499 5.53393 26.8745 5.41686 26.7474C4.56098 25.8847 3.69403 25.033 2.8429 24.1655C4.69704 22.3045 6.55909 20.4509 8.41428 18.5899Z" fill="#4AA05A"/>
<path d="M8.70118 3.32227C8.74231 3.28746 8.78344 3.25424 8.82616 3.22102C10.2505 4.66752 11.6954 6.09451 13.1282 7.53258C14.1877 8.59254 15.246 9.65303 16.306 10.7119C17.3607 11.7698 18.4191 12.8239 19.4738 13.8823C20.8649 15.2666 22.2465 16.6604 23.6398 18.042C23.6503 18.0605 23.6714 18.0969 23.682 18.1148C22.7523 19.0424 21.8262 19.9742 20.8944 20.8997C16.1378 16.1552 11.3927 11.3985 6.64032 6.65033C6.42622 6.43887 6.22583 6.21105 5.98219 6.03176C6.89713 5.13738 7.79309 4.2235 8.70118 3.32227Z" fill="#1FA5FF"/>
<path d="M3.20309 8.80559C4.13122 7.88326 5.05091 6.95145 5.9822 6.03176C6.22583 6.21106 6.42622 6.43887 6.64032 6.65034C11.3927 11.3985 16.1378 16.1552 20.8944 20.8997L20.9002 20.9055C19.9637 21.8368 19.0355 22.7776 18.0948 23.7046C16.6899 22.295 15.2803 20.8902 13.8744 19.4822C12.8229 18.4228 11.7645 17.3696 10.7093 16.3139C9.64829 15.2539 8.59096 14.1908 7.52678 13.1346C6.08608 11.6907 4.63852 10.2542 3.20309 8.80559Z" fill="#0D8EF0"/>
<path d="M23.6398 18.042C24.521 18.9306 25.4101 19.8107 26.2918 20.6982C26.7279 21.1264 26.9842 21.7245 27 22.3346V22.4374C26.9868 23.0486 26.73 23.6482 26.2939 24.078C25.9311 24.4492 25.5556 24.8089 25.1965 25.1838C23.7531 23.769 22.3409 22.323 20.9002 20.9055L20.8944 20.8997C21.8262 19.9742 22.7522 19.0424 23.6819 18.1148C23.6714 18.0969 23.6503 18.0605 23.6398 18.042Z" fill="#082668"/>
<path d="M18.0947 23.7046C19.0355 22.7776 19.9636 21.8368 20.9002 20.9055C22.3409 22.323 23.7531 23.769 25.1965 25.1838C24.8231 25.5704 24.4392 25.9458 24.0595 26.3255C23.6788 26.702 23.1704 26.9357 22.6404 27H22.1669C21.725 26.9536 21.2931 26.7896 20.9419 26.5154C20.7352 26.3572 20.5601 26.1636 20.3755 25.9817C19.6145 25.2234 18.8583 24.4603 18.0947 23.7046Z" fill="#082668"/>
</g>
<defs>
<clipPath id="clip0_1_302">
<rect width="27" height="27" fill="white"/>
</clipPath>
</defs>
</svg>
