<svg width="26" height="26" viewBox="0 0 26 26" fill="none" xmlns="http://www.w3.org/2000/svg">
<path fill-rule="evenodd" clip-rule="evenodd" d="M12.5277 6.52487C10.6539 6.52487 9.13477 8.04394 9.13477 9.91781C9.13477 11.7917 10.6539 13.3107 12.5277 13.3107C14.4015 13.3107 15.9206 11.7917 15.9206 9.91781C15.9206 8.04394 14.4015 6.52487 12.5277 6.52487ZM10.7007 9.91781C10.7007 8.9088 11.5187 8.09084 12.5277 8.09084C13.5367 8.09084 14.3547 8.9088 14.3547 9.91781C14.3547 10.9268 13.5367 11.7448 12.5277 11.7448C11.5187 11.7448 10.7007 10.9268 10.7007 9.91781Z" fill="#109DD4"/>
<path fill-rule="evenodd" clip-rule="evenodd" d="M12.5279 2.349C8.34774 2.349 4.95904 5.7377 4.95904 9.91786C4.95904 11.4505 5.41462 12.8768 6.19774 14.0687L3.49797 18.7448C3.34444 19.0108 3.36051 19.3419 3.5391 19.5917C3.71767 19.8415 4.02578 19.9639 4.32708 19.9046L7.05592 19.3682L7.95575 21.9996C8.05511 22.2902 8.31513 22.4958 8.62075 22.5256C8.92637 22.5554 9.22117 22.4038 9.37471 22.1378L12.0679 17.4729C12.2201 17.4821 12.3735 17.4867 12.5279 17.4867C12.6823 17.4867 12.8357 17.4821 12.9879 17.4729L15.6811 22.1378C15.8348 22.404 16.1301 22.5557 16.4359 22.5255C16.7418 22.4954 17.0018 22.2891 17.1006 21.9981L17.9959 19.3612L20.727 19.9043C21.0285 19.9643 21.3372 19.8423 21.5163 19.5924C21.6953 19.3425 21.7115 19.011 21.5578 18.7448L18.8581 14.0687C19.6412 12.8768 20.0968 11.4505 20.0968 9.91786C20.0968 5.7377 16.7081 2.349 12.5279 2.349ZM6.52501 9.91786C6.52501 6.60255 9.2126 3.91497 12.5279 3.91497C15.8432 3.91497 18.5308 6.60255 18.5308 9.91786C18.5308 13.2331 15.8432 15.9207 12.5279 15.9207C9.2126 15.9207 6.52501 13.2331 6.52501 9.91786ZM10.423 17.1902C9.21929 16.8424 8.13897 16.2039 7.26301 15.3555L5.71561 18.0358L7.42458 17.6998C7.80881 17.6242 8.18977 17.8442 8.31647 18.2147L8.88001 19.8627L10.423 17.1902ZM16.1733 19.8583L14.6329 17.1902C15.8365 16.8424 16.9168 16.2039 17.7928 15.3555L19.3377 18.0314L17.6278 17.6914C17.2425 17.6148 16.8601 17.8356 16.7338 18.2077L16.1733 19.8583Z" fill="#109DD4"/>
</svg>
