<svg width="26" height="26" viewBox="0 0 26 26" fill="none" xmlns="http://www.w3.org/2000/svg">
<rect width="25.0323" height="25.0323" rx="12.5161" fill="#53B966" fill-opacity="0.19"/>
<g clip-path="url(#clip0_8_35)">
<path fill-rule="evenodd" clip-rule="evenodd" d="M12.2416 6.36676C12.4137 6.31776 12.5953 6.31772 12.7673 6.36657C13.1333 6.4704 13.5025 6.56671 13.873 6.66334C15.6128 7.11709 17.3797 7.57792 18.9517 8.85829L19.6756 9.44791C19.9692 9.68708 20.1161 10.0411 20.1163 10.3952V15.3441C20.1163 15.6369 19.8789 15.8743 19.586 15.8743C19.2932 15.8743 19.0558 15.6369 19.0558 15.3441V11.8492L18.9406 11.9432C18.3959 12.3877 17.8276 12.7329 17.2451 13.0131C17.2729 13.0775 17.2883 13.1485 17.2883 13.2231V16.2589C17.2883 17.0601 16.7968 17.7792 16.0503 18.0703L13.2224 19.1729C12.7682 19.3499 12.2641 19.3499 11.8099 19.1729L8.98198 18.0703C8.23549 17.7792 7.74397 17.0601 7.74397 16.2589V13.2231C7.74397 13.1466 7.76018 13.0739 7.78935 13.0082C7.2023 12.7263 6.62957 12.3792 6.0806 11.932L5.35668 11.3424C4.76941 10.8641 4.76911 9.92638 5.35587 9.44756L6.09168 8.84712C7.65233 7.57359 9.40676 7.11552 11.1336 6.66463C11.5049 6.56768 11.875 6.47107 12.2416 6.36676ZM19.0558 10.3956C19.0558 10.3319 19.0301 10.2898 19.0059 10.2702L18.282 9.68055C16.7581 8.62769 15.4002 8.16333 13.6755 7.71013C13.2963 7.61048 12.9063 7.508 12.5048 7.39441C12.1015 7.50882 11.7101 7.61179 11.3296 7.71189C9.61877 8.16198 8.12803 8.55417 6.76216 9.66875L6.02634 10.2692C6.00217 10.2889 5.97647 10.331 5.9765 10.3947C5.97653 10.4584 6.00226 10.5005 6.0264 10.5202L6.75032 11.1098C8.12776 12.2317 9.63209 12.627 11.3568 13.0802C11.736 13.1798 12.126 13.2823 12.5275 13.3959C12.9308 13.2815 13.3221 13.1786 13.7026 13.0785C15.4135 12.6283 16.9043 12.2362 18.2701 11.1216L19.006 10.5211C19.0301 10.5014 19.0558 10.4592 19.0558 10.3956ZM13.8987 14.1257C14.6762 13.9227 15.4593 13.7182 16.2278 13.4385V16.2589C16.2278 16.6231 16.0044 16.9499 15.6651 17.0822L12.8371 18.1848C12.6308 18.2652 12.4015 18.2652 12.1952 18.1848L9.36719 17.0822C9.02787 16.9499 8.80446 16.6231 8.80446 16.2589V13.4325C9.58127 13.7154 10.373 13.9219 11.1593 14.127C11.5298 14.2236 11.899 14.3199 12.265 14.4237C12.437 14.4726 12.6187 14.4726 12.7907 14.4236C13.1573 14.3192 13.5274 14.2227 13.8987 14.1257Z" fill="#53B966"/>
</g>
<defs>
<clipPath id="clip0_8_35">
<rect width="16.9677" height="16.9677" fill="white" transform="translate(4.03226 4.03226)"/>
</clipPath>
</defs>
</svg>
