<svg width="20" height="21" viewBox="0 0 20 21" fill="none" xmlns="http://www.w3.org/2000/svg">
<path fill-rule="evenodd" clip-rule="evenodd" d="M11.8747 4.97443C11.8747 3.47866 13.0873 2.2661 14.583 2.2661C16.0788 2.2661 17.2913 3.47866 17.2913 4.97443C17.2913 6.47021 16.0788 7.68276 14.583 7.68276C13.7833 7.68276 13.0646 7.33617 12.5688 6.78501L10.3044 8.02016L7.77063 9.46801C7.99594 9.8631 8.12467 10.3204 8.12467 10.8078C8.12467 11.0547 8.09162 11.2939 8.0297 11.5213L12.5688 13.9972C13.0646 13.446 13.7833 13.0994 14.583 13.0994C16.0788 13.0994 17.2913 14.312 17.2913 15.8078C17.2913 17.3035 16.0788 18.5161 14.583 18.5161C13.0873 18.5161 11.8747 17.3035 11.8747 15.8078C11.8747 15.5608 11.9078 15.3216 11.9697 15.0943L7.43054 12.6183C6.93477 13.1695 6.21603 13.5161 5.41634 13.5161C3.92057 13.5161 2.70801 12.3035 2.70801 10.8078C2.70801 9.31201 3.92057 8.09943 5.41634 8.09943C5.95857 8.09943 6.46359 8.25878 6.88711 8.5332L9.69492 6.92871L11.9697 5.68797C11.9078 5.46063 11.8747 5.22139 11.8747 4.97443ZM14.583 3.5161C13.7776 3.5161 13.1247 4.16901 13.1247 4.97443C13.1247 5.77985 13.7776 6.43276 14.583 6.43276C15.3884 6.43276 16.0413 5.77985 16.0413 4.97443C16.0413 4.16901 15.3884 3.5161 14.583 3.5161ZM5.41634 9.34943C4.61092 9.34943 3.95801 10.0023 3.95801 10.8078C3.95801 11.6132 4.61092 12.2661 5.41634 12.2661C6.22176 12.2661 6.87467 11.6132 6.87467 10.8078C6.87467 10.0023 6.22176 9.34943 5.41634 9.34943ZM13.1247 15.8078C13.1247 15.0023 13.7776 14.3494 14.583 14.3494C15.3884 14.3494 16.0413 15.0023 16.0413 15.8078C16.0413 16.6132 15.3884 17.2661 14.583 17.2661C13.7776 17.2661 13.1247 16.6132 13.1247 15.8078Z" fill="#53B966"/>
</svg>
