<svg width="23" height="23" viewBox="0 0 23 23" fill="none" xmlns="http://www.w3.org/2000/svg">
<path fill-rule="evenodd" clip-rule="evenodd" d="M6.67263 6.67256V6.56223C6.67263 4.56714 8.02336 2.82515 9.95563 2.32829C10.6698 2.14464 11.4188 2.14464 12.133 2.32829C14.0653 2.82515 15.416 4.56714 15.416 6.56224V6.67256H16.7975C17.3233 6.67256 17.7695 7.05817 17.8458 7.5784L18.047 8.95198C18.4433 11.6564 18.4433 14.4042 18.047 17.1085C17.8557 18.4145 16.8025 19.4243 15.4896 19.5604L14.9108 19.6204C12.3401 19.887 9.74855 19.887 7.17779 19.6204L6.59901 19.5604C5.28608 19.4243 4.23293 18.4145 4.04157 17.1085C3.64532 14.4042 3.64532 11.6564 4.04157 8.95198L4.24283 7.5784C4.31906 7.05817 4.76528 6.67256 5.29106 6.67256H6.67263ZM10.2994 3.66532C10.7881 3.53966 11.3005 3.53966 11.7893 3.66532C13.1112 4.00528 14.0355 5.19717 14.0355 6.56224V6.67256H8.05317V6.56223C8.05317 5.19717 8.97734 4.00528 10.2994 3.66532ZM6.67263 8.05309V10.1239C6.67263 10.5051 6.98168 10.8142 7.3629 10.8142C7.74412 10.8142 8.05317 10.5051 8.05317 10.1239V8.05309H14.0355V10.1239C14.0355 10.5051 14.3445 10.8142 14.7257 10.8142C15.1069 10.8142 15.416 10.5051 15.416 10.1239V8.05309H16.5201L16.6811 9.15212C17.0579 11.7238 17.0579 14.3367 16.6811 16.9085C16.5813 17.5896 16.032 18.1162 15.3472 18.1872L14.7684 18.2473C12.2923 18.5041 9.79632 18.5041 7.32019 18.2473L6.7414 18.1872C6.05662 18.1162 5.50733 17.5896 5.40752 16.9085C5.03071 14.3367 5.03071 11.7238 5.40752 9.15212L5.56855 8.05309H6.67263Z" fill="white"/>
</svg>
