<svg width="25" height="25" viewBox="0 0 25 25" fill="none" xmlns="http://www.w3.org/2000/svg">
<path d="M14.2016 7.79659C14.4945 8.08948 14.9693 8.08948 15.2622 7.79659L15.9819 7.07692V17.2663C15.9819 17.6805 16.3177 18.0163 16.7319 18.0163C17.1461 18.0163 17.4819 17.6805 17.4819 17.2663V7.07692L18.2016 7.79659C18.4945 8.08948 18.9693 8.08948 19.2622 7.79659C19.5551 7.5037 19.5551 7.02882 19.2622 6.73593L17.2622 4.73593C16.9693 4.44304 16.4945 4.44304 16.2016 4.73593L14.2016 6.73593C13.9087 7.02882 13.9087 7.5037 14.2016 7.79659Z" fill="#181818"/>
<path d="M9.48193 17.4556L10.2016 16.736C10.4945 16.4431 10.9693 16.4431 11.2622 16.736C11.5551 17.0289 11.5551 17.5037 11.2622 17.7966L9.26226 19.7966C8.96937 20.0895 8.49449 20.0895 8.2016 19.7966L6.2016 17.7966C5.90871 17.5037 5.90871 17.0289 6.2016 16.736C6.49449 16.4431 6.96937 16.4431 7.26226 16.736L7.98193 17.4556V7.26633C7.98193 6.85212 8.31772 6.51633 8.73193 6.51633C9.14614 6.51633 9.48193 6.85212 9.48193 7.26633V17.4556Z" fill="#181818"/>
</svg>
