<svg width="13" height="13" viewBox="0 0 13 13" fill="none" xmlns="http://www.w3.org/2000/svg">
<path d="M10.735 4.7849L7.73349 4.34869L6.39174 1.62855C6.3551 1.55407 6.29481 1.49378 6.22033 1.45714C6.03355 1.36493 5.80658 1.44177 5.71319 1.62855L4.37144 4.34869L1.36995 4.7849C1.2872 4.79672 1.21154 4.83573 1.15362 4.89484C1.08359 4.96682 1.045 5.06365 1.04633 5.16407C1.04766 5.26448 1.0888 5.36026 1.16071 5.43036L3.33233 7.5476L2.81927 10.5373C2.80724 10.6068 2.81494 10.6783 2.84149 10.7437C2.86804 10.8091 2.91238 10.8658 2.96949 10.9073C3.02659 10.9487 3.09418 10.9734 3.16458 10.9784C3.23498 10.9834 3.30538 10.9686 3.36779 10.9357L6.05246 9.52416L8.73714 10.9357C8.81043 10.9747 8.89555 10.9877 8.97712 10.9735C9.18281 10.938 9.32112 10.743 9.28566 10.5373L8.7726 7.5476L10.9442 5.43036C11.0033 5.37243 11.0423 5.29677 11.0542 5.21402C11.0861 5.00715 10.9419 4.81564 10.735 4.7849Z" fill="#FABA09"/>
</svg>
