<svg width="25" height="25" viewBox="0 0 25 25" fill="none" xmlns="http://www.w3.org/2000/svg">
<rect y="0.855011" width="24.0645" height="24.0645" rx="12.0323" fill="#53B966" fill-opacity="0.19"/>
<path d="M10.6989 6.89911C10.4227 6.89911 10.1989 6.67525 10.1989 6.39911C10.1989 6.12297 10.4227 5.89911 10.6989 5.89911H13.0559C13.332 5.89911 13.5559 6.12297 13.5559 6.39911C13.5559 6.67525 13.332 6.89911 13.0559 6.89911H10.6989Z" fill="#53B966"/>
<path d="M8.38582 7.20039C8.58108 7.39565 8.58108 7.71223 8.38582 7.9075L6.71915 9.57416C6.52389 9.76942 6.20731 9.76942 6.01205 9.57416C5.81679 9.3789 5.81679 9.06232 6.01205 8.86706L7.67871 7.20039C7.87397 7.00512 8.19056 7.00512 8.38582 7.20039Z" fill="#53B966"/>
<path d="M12.0322 8.7206C9.36281 8.7206 7.19885 10.8845 7.19885 13.5539C7.19885 16.2233 9.36281 18.3873 12.0322 18.3873C14.7016 18.3873 16.8655 16.2233 16.8655 13.5539C16.8655 13.2778 17.0894 13.0539 17.3655 13.0539C17.6417 13.0539 17.8655 13.2778 17.8655 13.5539C17.8655 16.7756 15.2539 19.3873 12.0322 19.3873C8.81053 19.3873 6.19885 16.7756 6.19885 13.5539C6.19885 10.3323 8.81053 7.7206 12.0322 7.7206C12.3083 7.7206 12.5322 7.94445 12.5322 8.2206C12.5322 8.49674 12.3083 8.7206 12.0322 8.7206Z" fill="#53B966"/>
<path d="M15.491 10.4634C15.6458 10.2644 15.6282 9.98121 15.4499 9.8029C15.2716 9.62459 14.9884 9.60697 14.7893 9.76177L12.6761 11.4054L11.2951 12.3919C11.0001 12.6025 10.8251 12.9427 10.8251 13.3052C10.8251 13.9251 11.3277 14.4277 11.9475 14.4277C12.3101 14.4277 12.6503 14.2527 12.8609 13.9577L13.8473 12.5767L15.491 10.4634Z" fill="#53B966"/>
</svg>
