<svg width="28" height="28" viewBox="0 0 28 28" fill="none" xmlns="http://www.w3.org/2000/svg">
<path d="M19.5192 12.3966C19.5192 12.8634 19.1407 13.2418 18.674 13.2418H9.65821C9.19141 13.2418 8.81299 12.8634 8.81299 12.3966C8.81299 11.9298 9.19141 11.5514 9.65821 11.5514H18.674C19.1407 11.5514 19.5192 11.9298 19.5192 12.3966Z" fill="#ACB5BD"/>
<path fill-rule="evenodd" clip-rule="evenodd" d="M5.58489 9.18104L6.92455 5.5211C7.26217 4.59875 8.08101 3.93781 9.05384 3.80243C12.4457 3.33042 15.8865 3.33042 19.2785 3.80243C20.2513 3.93781 21.0701 4.59876 21.4078 5.52112L22.7475 9.18138C22.998 9.57231 23.1706 10.0192 23.243 10.5009L23.358 11.2648C23.8085 14.2611 23.7664 17.3108 23.2332 20.2933C22.9969 21.6155 21.9109 22.62 20.5742 22.7527L19.1876 22.8903C15.8481 23.2217 12.484 23.2217 9.14452 22.8903L7.75782 22.7527C6.42116 22.62 5.33525 21.6155 5.0989 20.2933C4.56576 17.3108 4.52364 14.2611 4.9742 11.2648L5.08907 10.5009C5.16153 10.019 5.33421 9.57204 5.58489 9.18104ZM9.28684 5.47674C12.5241 5.02625 15.8082 5.02625 19.0454 5.47674C19.3994 5.52601 19.6974 5.76652 19.8203 6.10217L20.3908 7.66075C20.3396 7.6533 20.2881 7.647 20.2364 7.64185L19.134 7.53243C15.8302 7.20452 12.502 7.20452 9.19818 7.53244L8.09579 7.64185C8.04401 7.64699 7.99258 7.65329 7.94151 7.66073L8.512 6.10217C8.63486 5.76652 8.93283 5.52601 9.28684 5.47674ZM7.05004 10.0311L7.07107 10.0388L7.09716 9.9675C7.3741 9.61154 7.79008 9.37096 8.26276 9.32404L9.36514 9.21462C12.5579 8.89773 15.7742 8.89773 18.967 9.21462L20.0694 9.32404C20.5421 9.37097 20.9582 9.61164 21.2351 9.96773L21.2611 10.0388L21.2821 10.0311C21.4298 10.2406 21.5313 10.4858 21.5714 10.7523L21.6862 11.5162C22.1094 14.3303 22.0698 17.1946 21.5691 19.9959C21.4659 20.5737 20.9913 21.0125 20.4073 21.0704L19.0206 21.2081C15.7922 21.5285 12.54 21.5285 9.31148 21.2081L7.92479 21.0704C7.34073 21.0125 6.86625 20.5737 6.76298 19.9959C6.26224 17.1946 6.22269 14.3303 6.64585 11.5162L6.76072 10.7523C6.80081 10.4858 6.90226 10.2406 7.05004 10.0311Z" fill="#ACB5BD"/>
</svg>
