<svg width="28" height="27" viewBox="0 0 28 27" fill="none" xmlns="http://www.w3.org/2000/svg">
<path fill-rule="evenodd" clip-rule="evenodd" d="M6.95925 5.61423L5.77019 9.42541C5.5767 9.75652 5.44272 10.1276 5.38302 10.5245L5.26835 11.287C4.82313 14.2477 4.86476 17.2612 5.39157 20.2085C5.60538 21.4046 6.58765 22.3132 7.79678 22.4331L9.18105 22.5706C12.4962 22.8996 15.8359 22.8996 19.1511 22.5706L20.5354 22.4331C21.7444 22.3132 22.7268 21.4046 22.9405 20.2085C23.4674 17.2612 23.509 14.2477 23.0637 11.287L22.9491 10.5245C22.887 10.1113 22.7443 9.72608 22.5378 9.38482L21.3718 5.61886C21.0696 4.64285 20.2304 3.92958 19.2185 3.78876C15.8663 3.32228 12.4641 3.32254 9.11202 3.78901C8.10203 3.92955 7.26309 4.64035 6.95925 5.61423ZM18.9858 5.46015C15.7881 5.01515 12.5424 5.01539 9.3446 5.4604C8.98109 5.51099 8.67934 5.76688 8.57017 6.11682L8.0064 7.92382C8.04871 7.91785 8.0913 7.91273 8.13416 7.90847L9.23462 7.79925C12.5141 7.47374 15.8179 7.47374 19.0975 7.79925L20.198 7.90847C20.2384 7.91249 20.2787 7.91728 20.3186 7.92283L19.7598 6.11794C19.6512 5.76713 19.3496 5.51076 18.9858 5.46015ZM18.6661 13.2188C19.1321 13.2188 19.5098 12.841 19.5098 12.375C19.5098 11.9091 19.1321 11.5313 18.6661 11.5313H9.66608C9.20009 11.5313 8.82233 11.9091 8.82233 12.375C8.82233 12.841 9.20009 13.2188 9.66608 13.2188H18.6661Z" fill="#109DD4"/>
</svg>
