<svg width="25" height="25" viewBox="0 0 25 25" fill="none" xmlns="http://www.w3.org/2000/svg">
<rect x="0.532227" y="0.0975609" width="24.3853" height="24.3853" rx="12.1926" fill="#53B966" fill-opacity="0.19"/>
<path fill-rule="evenodd" clip-rule="evenodd" d="M9.83472 9.23005C9.83472 7.63388 11.1287 6.33992 12.7249 6.33992C14.321 6.33992 15.615 7.63388 15.615 9.23005C15.615 10.8262 14.321 12.1202 12.7249 12.1202C11.1287 12.1202 9.83472 10.8262 9.83472 9.23005ZM12.7249 7.35997C11.692 7.35997 10.8548 8.19724 10.8548 9.23005C10.8548 10.2629 11.692 11.1001 12.7249 11.1001C13.7577 11.1001 14.5949 10.2629 14.5949 9.23005C14.5949 8.19724 13.7577 7.35997 12.7249 7.35997Z" fill="#53B966"/>
<path fill-rule="evenodd" clip-rule="evenodd" d="M10.0047 14.1603C9.15967 14.1603 8.47464 14.8453 8.47464 15.6904V16.4984C8.47464 16.5107 8.48355 16.5212 8.4957 16.5232C11.2966 16.9805 14.1531 16.9805 16.9539 16.5232C16.9661 16.5212 16.975 16.5107 16.975 16.4984V15.6904C16.975 14.8453 16.29 14.1603 15.445 14.1603H15.2131C15.1953 14.1603 15.1774 14.1631 15.1604 14.1686L14.5718 14.3609C13.3717 14.7527 12.078 14.7527 10.8779 14.3609L10.2893 14.1686C10.2722 14.1631 10.2544 14.1603 10.2365 14.1603H10.0047ZM7.45459 15.6904C7.45459 14.2819 8.59632 13.1402 10.0047 13.1402H10.2365C10.362 13.1402 10.4866 13.1601 10.6059 13.199L11.1945 13.3912C12.1889 13.7159 13.2608 13.7159 14.2552 13.3912L14.8437 13.199C14.963 13.1601 15.0877 13.1402 15.2131 13.1402H15.445C16.8534 13.1402 17.9951 14.2819 17.9951 15.6904V16.4984C17.9951 17.0106 17.6238 17.4474 17.1183 17.5299C14.2086 18.005 11.2411 18.005 8.33133 17.5299C7.82581 17.4474 7.45459 17.0106 7.45459 16.4984V15.6904Z" fill="#53B966"/>
</svg>
