<svg width="24" height="24" viewBox="0 0 24 24" fill="none" xmlns="http://www.w3.org/2000/svg">
<path d="M14.9263 5.38755C14.8315 4.62944 13.936 4.27603 13.349 4.76514L8.49961 8.80633C8.41279 8.87868 8.30336 8.9183 8.19034 8.9183H4.43382C3.7668 8.9183 3.22607 9.45903 3.22607 10.126V14.4739C3.22607 15.141 3.7668 15.6817 4.43382 15.6817H8.19034C8.30336 15.6817 8.41279 15.7213 8.49961 15.7936L13.349 19.8349C13.936 20.324 14.8315 19.9705 14.9263 19.2124L15.0189 18.4718C15.5313 14.3732 15.5313 10.2268 15.0189 6.12813L14.9263 5.38755Z" fill="white"/>
<path d="M20.0459 6.45042C20.4258 6.32476 20.8358 6.5309 20.9614 6.91087C21.5223 8.60652 21.8255 10.4186 21.8255 12.3C21.8255 14.1815 21.5223 15.9935 20.9614 17.6891C20.8358 18.0691 20.4258 18.2752 20.0459 18.1496C19.6659 18.0239 19.4597 17.6141 19.5854 17.2341C20.0983 15.6834 20.3762 14.0248 20.3762 12.3C20.3762 10.5751 20.0983 8.91664 19.5854 7.36597C19.4597 6.98599 19.6659 6.57609 20.0459 6.45042Z" fill="white"/>
<path d="M18.2334 8.38467C18.0953 8.00901 17.6789 7.81637 17.3033 7.9544C16.9276 8.09242 16.735 8.50885 16.873 8.8845C17.2638 9.94822 17.4776 11.0983 17.4776 12.3C17.4776 13.2967 17.3305 14.2579 17.0575 15.1635C17.0423 15.2139 17.0266 15.2643 17.0107 15.3143C16.9676 15.4493 16.9217 15.5831 16.873 15.7155C16.735 16.0911 16.9276 16.5076 17.3033 16.6456C17.6789 16.7836 18.0953 16.591 18.2334 16.2153C18.2893 16.0634 18.3419 15.9099 18.3914 15.755C18.4097 15.6974 18.4276 15.6397 18.4451 15.5819C18.7585 14.5419 18.9269 13.44 18.9269 12.3C18.9269 10.9253 18.6822 9.60611 18.2334 8.38467Z" fill="white"/>
</svg>
