<svg width="28" height="28" viewBox="0 0 28 28" fill="none" xmlns="http://www.w3.org/2000/svg">
<path d="M10.0457 6.00897C6.86282 6.00897 4.15118 8.38887 4.15118 11.4798C4.15118 13.612 5.14964 15.4072 6.47292 16.8942C7.79165 18.3762 9.49303 19.6201 11.0311 20.6612L13.6849 22.4576C13.9756 22.6544 14.3567 22.6544 14.6473 22.4576L17.3011 20.6612C18.8393 19.6201 20.5405 18.3762 21.8593 16.8942C23.1827 15.4072 24.1811 13.612 24.1811 11.4798C24.1811 8.38887 21.4695 6.00897 18.2866 6.00897C16.6458 6.00897 15.2022 6.77828 14.1661 7.7737C13.1301 6.77828 11.6864 6.00897 10.0457 6.00897Z" fill="#109DD4"/>
</svg>
