<svg width="30" height="29" viewBox="0 0 30 29" fill="none" xmlns="http://www.w3.org/2000/svg">
<path fill-rule="evenodd" clip-rule="evenodd" d="M4.7149 11.9798C4.7149 8.75425 7.54465 6.27069 10.8662 6.27069C12.5783 6.27069 14.0849 7.07351 15.1661 8.11228C16.2473 7.07351 17.7538 6.27069 19.466 6.27069C22.7876 6.27069 25.6173 8.75425 25.6173 11.9798C25.6173 14.1893 24.675 16.1323 23.3696 17.7747C22.0664 19.4144 20.3618 20.8059 18.7296 21.9367C18.1061 22.3686 17.4755 22.7669 16.8983 23.0609C16.3563 23.3369 15.7331 23.5898 15.1661 23.5898C14.5991 23.5898 13.9758 23.3369 13.4338 23.0609C12.8567 22.7669 12.226 22.3686 11.6026 21.9367C9.97041 20.8059 8.26576 19.4144 6.96259 17.7747C5.65716 16.1323 4.7149 14.1893 4.7149 11.9798ZM10.8662 8.06232C8.38267 8.06232 6.50653 9.88871 6.50653 11.9798C6.50653 13.6561 7.21816 15.2169 8.36516 16.66C9.51442 18.106 11.0608 19.3817 12.6228 20.464C13.2139 20.8734 13.7706 21.2218 14.247 21.4644C14.7583 21.7248 15.0546 21.7981 15.1661 21.7981C15.2775 21.7981 15.5739 21.7248 16.0852 21.4644C16.5615 21.2218 17.1182 20.8734 17.7094 20.464C19.2714 19.3817 20.8177 18.106 21.967 16.66C23.114 15.2169 23.8256 13.6561 23.8256 11.9798C23.8256 9.88871 21.9494 8.06232 19.466 8.06232C18.0396 8.06232 16.7078 8.91444 15.8763 9.99599C15.7067 10.2165 15.4443 10.3458 15.1661 10.3458C14.8879 10.3458 14.6255 10.2165 14.4559 9.99599C13.6243 8.91444 12.2925 8.06232 10.8662 8.06232Z" fill="#ACB5BD"/>
</svg>
